<?xml version="1.0" standalone="no"?>
<!DOCTYPE svg PUBLIC "-//W3C//DTD SVG 20010904//EN"
 "http://www.w3.org/TR/2001/REC-SVG-20010904/DTD/svg10.dtd">
<svg version="1.0" xmlns="http://www.w3.org/2000/svg"
 width="225.000000pt" height="225.000000pt" viewBox="0 0 225.000000 225.000000"
 preserveAspectRatio="xMidYMid meet">

<g transform="translate(0.000000,225.000000) scale(0.100000,-0.100000)"
fill="#000000" stroke="none">
<path d="M805 2057 c-127 -42 -229 -151 -256 -274 -13 -55 -12 -56 15 -79 15
-13 33 -24 41 -24 25 0 62 44 74 89 16 58 100 142 157 159 72 21 145 15 205
-16 94 -49 146 -143 136 -245 -9 -102 -128 -290 -475 -751 -97 -129 -112 -154
-112 -187 0 -31 5 -42 27 -56 25 -16 56 -18 360 -16 183 1 342 4 352 8 24 7
41 53 30 82 -16 44 -35 46 -321 38 -147 -4 -268 -4 -268 -1 0 3 58 83 128 178
277 373 346 481 388 604 22 67 26 90 21 152 -11 140 -90 256 -217 316 -55 26
-79 31 -155 33 -55 2 -106 -2 -130 -10z"/>
<path d="M25 1575 c-29 -29 -32 -55 -7 -84 15 -19 29 -21 137 -23 l120 -3 3
-624 c2 -564 4 -626 19 -643 16 -18 59 -24 79 -10 33 21 34 50 34 707 l0 656
-25 24 c-24 24 -28 25 -180 25 -152 0 -156 -1 -180 -25z"/>
<path d="M1775 1587 c-147 -38 -270 -164 -292 -301 -7 -42 23 -76 66 -76 35 0
43 10 69 78 28 74 61 113 122 146 124 68 288 17 351 -107 43 -84 35 -188 -21
-265 -42 -58 -96 -91 -171 -104 -74 -13 -99 -30 -99 -68 0 -45 21 -62 89 -71
34 -5 75 -15 90 -24 46 -23 92 -76 119 -134 20 -44 24 -64 19 -111 -13 -150
-130 -251 -277 -237 -129 11 -215 99 -234 239 -11 73 -70 103 -112 57 -25 -28
-22 -107 7 -184 29 -79 119 -173 201 -211 56 -26 74 -29 163 -29 87 0 107 3
157 27 240 112 302 432 119 619 l-56 58 48 45 c30 28 60 71 79 113 29 61 32
77 32 158 -1 103 -16 153 -70 232 -39 57 -115 114 -182 138 -62 21 -159 27
-217 12z"/>
</g>
</svg>
