<?xml version="1.0" encoding="UTF-8"?>
<svg version="1.1" xmlns="http://www.w3.org/2000/svg" width="980" height="980">
<path d="M0 0 C323.4 0 646.8 0 980 0 C980 323.4 980 646.8 980 980 C656.6 980 333.2 980 0 980 C0 656.6 0 333.2 0 0 Z " fill="#FEFEFE" transform="translate(0,0)"/>
<path d="M0 0 C4.52382324 2.64242012 8.09230743 5.63846114 11 10 C11.24050903 13.17008972 11.24050903 13.17008972 11.22705078 17.13354492 C11.22734283 17.85574722 11.22763489 18.57794952 11.22793579 19.32203674 C11.22654285 21.70830312 11.21098353 24.09425695 11.1953125 26.48046875 C11.19158224 28.1352776 11.18873533 29.79008866 11.18673706 31.44490051 C11.17910163 35.79985657 11.15945393 40.15467918 11.1373291 44.50958252 C11.11686873 48.95363561 11.10773494 53.39771026 11.09765625 57.84179688 C11.07620793 66.56125915 11.0420731 75.28061297 11 84 C14.39722075 83.96617811 17.79142636 83.88212475 21.1875 83.7890625 C22.62706055 83.77564819 22.62706055 83.77564819 24.09570312 83.76196289 C29.96243155 83.57503074 29.96243155 83.57503074 35.05664062 80.82519531 C37.2887078 78.01099605 39.10965102 75.05418324 41 72 C43.07821613 69.33849787 45.27765154 66.79167497 47.5 64.25 C48.05905029 63.60426025 48.61810059 62.95852051 49.1940918 62.29321289 C58.06491506 52.19702977 67.56947347 45.79624093 81 44 C86.04429043 43.72296012 91.08253268 43.71760023 96.1328125 43.734375 C97.57909205 43.73302427 99.02537116 43.73108035 100.47164917 43.72857666 C103.48553846 43.72564647 106.49930831 43.72985588 109.51318359 43.73925781 C113.35724415 43.75067178 117.20102592 43.74406729 121.04507637 43.73211288 C124.02552355 43.72485462 127.00590559 43.72719999 129.98635483 43.73236847 C131.40319732 43.73369295 132.82004591 43.73209988 134.23688126 43.72740936 C150.75453269 43.68469609 163.62019014 47.58862041 175.9921875 58.94921875 C189.15862766 72.39743098 191.49173671 93.68425535 195.02490234 111.4543457 C196.70129881 119.82094211 198.69686483 128.09488214 200.75 136.375 C204.4436598 151.29439703 207.70600666 166.29225447 210.85449219 181.33544922 C212.58308957 189.56906381 214.38913849 197.75985879 216.47428894 205.9108429 C218.69737813 214.64537414 220.60809596 223.45230407 222.5625 232.25 C223.33280253 235.71395318 224.10527824 239.17741318 224.87890625 242.640625 C225.06214951 243.4668486 225.24539276 244.2930722 225.43418884 245.14433289 C226.43918339 249.64104544 227.54628888 254.08859535 228.7578125 258.53515625 C230.18033505 264.13207884 230.41460154 269.4330572 230.3125 275.1875 C230.31733398 276.56711914 230.31733398 276.56711914 230.32226562 277.97460938 C230.18992968 294.94970208 223.47497555 310.68525078 212.75 323.6875 C212.31349121 324.21722412 211.87698242 324.74694824 211.42724609 325.29272461 C210.33391014 326.57211053 209.17195109 327.79221588 208 329 C207.34 329 206.68 329 206 329 C206 329.66 206 330.32 206 331 C203.79881339 332.56972307 201.60780103 334.01812803 199.3125 335.4375 C198.68666016 335.83259766 198.06082031 336.22769531 197.41601562 336.63476562 C196.17915172 337.41314804 194.9384393 338.18545053 193.69384766 338.95141602 C192.29568539 339.81695463 190.91653458 340.7131235 189.54296875 341.6171875 C175.75236916 349.11622322 157.04330884 350.57806906 141.9375 346.8125 C140.27742215 346.24865049 138.63083757 345.64354763 137 345 C136.03191406 344.64808594 135.06382812 344.29617188 134.06640625 343.93359375 C118.23764183 337.82389233 107.74376577 327.88905465 97.2890625 314.79296875 C94.91026001 311.89050496 92.42048934 309.1319726 89.875 306.375 C86.27947515 302.46922955 82.9752869 298.46507383 79.76953125 294.23828125 C77.11159825 290.87626004 74.20203631 287.75662082 71.3125 284.59375 C68.99803784 281.9977992 66.80501577 279.33444817 64.625 276.625 C61.34430866 272.56428414 57.92994025 268.69261758 54.375 264.875 C42.8074885 252.4224655 42.8074885 252.4224655 41 247 C10.64 247 -19.72 247 -51 247 C-51.66 248.32 -52.32 249.64 -53 251 C-54.33386485 252.57739205 -55.71426931 254.11596056 -57.125 255.625 C-60.23710342 259.01594789 -63.21418881 262.44711887 -66.0625 266.0625 C-69.21936904 270.06785558 -72.53095299 273.87771052 -75.9453125 277.6640625 C-78.14054536 280.15978351 -80.22807311 282.72365663 -82.3125 285.3125 C-85.59766341 289.36797759 -89.00911822 293.24490808 -92.5625 297.0625 C-96.62572319 301.42867667 -100.42182553 305.93536419 -104.1015625 310.62890625 C-106.6497242 313.81148681 -109.34819023 316.83912162 -112.08984375 319.85546875 C-113.28720173 321.19974182 -114.45236163 322.57419469 -115.56640625 323.98828125 C-126.2227371 337.31537171 -142.43215699 344.98519578 -159 348 C-162.06879625 348.28374458 -165.10687633 348.3339129 -168.1875 348.3125 C-169.01757568 348.30831055 -169.84765137 348.30412109 -170.70288086 348.29980469 C-188.41577515 347.9776586 -204.91400668 341.13069817 -217.96484375 329.125 C-225.99913307 320.73602996 -231.77111568 311.84973134 -236 301 C-236.4125 300.05511719 -236.825 299.11023438 -237.25 298.13671875 C-242.47510215 284.43896831 -242.22625536 265.70199593 -237 252 C-236.505 251.01 -236.505 251.01 -236 250 C-235.69837117 248.30947565 -235.43084839 246.61281815 -235.1796875 244.9140625 C-233.89883221 236.97086563 -232.00853908 229.19072531 -230.125 221.375 C-229.43810875 218.50828704 -228.75353798 215.64102623 -228.0703125 212.7734375 C-227.89935562 212.05631592 -227.72839874 211.33919434 -227.55226135 210.6003418 C-225.61109885 202.42029525 -223.80216966 194.21158356 -222 186 C-221.6937405 184.60659585 -221.38742646 183.21320369 -221.08105469 181.81982422 C-220.85687111 180.8001783 -220.85687111 180.8001783 -220.62815857 179.75993347 C-216.6303903 161.58341734 -212.487215 143.44985299 -208.15454102 125.35009766 C-206.07109234 116.63016468 -204.08828535 107.90060631 -202.25 99.125 C-198.37548013 80.82191249 -194.07189119 64.09532998 -178.546875 52.10546875 C-167.39136103 44.99832679 -156.19542066 43.39960113 -143.234375 43.5390625 C-141.74611573 43.54145439 -140.25785339 43.54235068 -138.76959229 43.5418396 C-135.67334679 43.54494314 -132.57757238 43.56132274 -129.48144531 43.58837891 C-125.53203696 43.62247481 -121.58314052 43.63000252 -117.63360214 43.62848854 C-114.56906335 43.62903453 -111.50463425 43.64003628 -108.44013214 43.65449142 C-106.98422319 43.66080881 -105.52830196 43.66478632 -104.07238007 43.66627884 C-88.01480549 43.70080156 -74.00433329 47.35051822 -62.07421875 58.7734375 C-58.97003181 62.10561557 -56.10919065 65.6046478 -53.28515625 69.17578125 C-50.23852282 72.94110769 -46.96110615 76.46890368 -43.65234375 80.00390625 C-42 82 -42 82 -42 84 C-35.07 84 -28.14 84 -21 84 C-21.0314209 81.83050781 -21.0628418 79.66101563 -21.09521484 77.42578125 C-21.19487547 70.2375154 -21.26100411 63.0492181 -21.31087303 55.86044312 C-21.34211387 51.50408215 -21.3844518 47.14843225 -21.45263672 42.79248047 C-21.51809141 38.58435129 -21.5537605 34.37690361 -21.56926346 30.16830444 C-21.58030337 28.5671415 -21.60186236 26.96601359 -21.63438034 25.36514282 C-21.92947992 10.22775687 -21.92947992 10.22775687 -16.56655884 4.35644531 C-11.68921541 0.1332719 -6.31484693 -1.48036575 0 0 Z " fill="#FCFCFC" transform="translate(495,316)"/>
<path d="M0 0 C4.52382324 2.64242012 8.09230743 5.63846114 11 10 C11.24050903 13.17008972 11.24050903 13.17008972 11.22705078 17.13354492 C11.22734283 17.85574722 11.22763489 18.57794952 11.22793579 19.32203674 C11.22654285 21.70830312 11.21098353 24.09425695 11.1953125 26.48046875 C11.19158224 28.1352776 11.18873533 29.79008866 11.18673706 31.44490051 C11.17910163 35.79985657 11.15945393 40.15467918 11.1373291 44.50958252 C11.11686873 48.95363561 11.10773494 53.39771026 11.09765625 57.84179688 C11.07620793 66.56125915 11.0420731 75.28061297 11 84 C14.39722075 83.96617811 17.79142636 83.88212475 21.1875 83.7890625 C22.62706055 83.77564819 22.62706055 83.77564819 24.09570312 83.76196289 C29.96243155 83.57503074 29.96243155 83.57503074 35.05664062 80.82519531 C37.2887078 78.01099605 39.10965102 75.05418324 41 72 C43.07821613 69.33849787 45.27765154 66.79167497 47.5 64.25 C48.05905029 63.60426025 48.61810059 62.95852051 49.1940918 62.29321289 C58.06491506 52.19702977 67.56947347 45.79624093 81 44 C86.04429043 43.72296012 91.08253268 43.71760023 96.1328125 43.734375 C97.57909205 43.73302427 99.02537116 43.73108035 100.47164917 43.72857666 C103.48553846 43.72564647 106.49930831 43.72985588 109.51318359 43.73925781 C113.35724415 43.75067178 117.20102592 43.74406729 121.04507637 43.73211288 C124.02552355 43.72485462 127.00590559 43.72719999 129.98635483 43.73236847 C131.40319732 43.73369295 132.82004591 43.73209988 134.23688126 43.72740936 C150.75453269 43.68469609 163.62019014 47.58862041 175.9921875 58.94921875 C189.15862766 72.39743098 191.49173671 93.68425535 195.02490234 111.4543457 C196.70129881 119.82094211 198.69686483 128.09488214 200.75 136.375 C204.4436598 151.29439703 207.70600666 166.29225447 210.85449219 181.33544922 C212.58308957 189.56906381 214.38913849 197.75985879 216.47428894 205.9108429 C218.69737813 214.64537414 220.60809596 223.45230407 222.5625 232.25 C223.33280253 235.71395318 224.10527824 239.17741318 224.87890625 242.640625 C225.06214951 243.4668486 225.24539276 244.2930722 225.43418884 245.14433289 C226.43918339 249.64104544 227.54628888 254.08859535 228.7578125 258.53515625 C230.18033505 264.13207884 230.41460154 269.4330572 230.3125 275.1875 C230.31733398 276.56711914 230.31733398 276.56711914 230.32226562 277.97460938 C230.18992968 294.94970208 223.47497555 310.68525078 212.75 323.6875 C212.31349121 324.21722412 211.87698242 324.74694824 211.42724609 325.29272461 C210.33391014 326.57211053 209.17195109 327.79221588 208 329 C207.34 329 206.68 329 206 329 C206 329.66 206 330.32 206 331 C203.79881339 332.56972307 201.60780103 334.01812803 199.3125 335.4375 C198.68666016 335.83259766 198.06082031 336.22769531 197.41601562 336.63476562 C196.17915172 337.41314804 194.9384393 338.18545053 193.69384766 338.95141602 C192.29568539 339.81695463 190.91653458 340.7131235 189.54296875 341.6171875 C175.75236916 349.11622322 157.04330884 350.57806906 141.9375 346.8125 C140.27742215 346.24865049 138.63083757 345.64354763 137 345 C136.03191406 344.64808594 135.06382812 344.29617188 134.06640625 343.93359375 C118.23764183 337.82389233 107.74376577 327.88905465 97.2890625 314.79296875 C94.91026001 311.89050496 92.42048934 309.1319726 89.875 306.375 C86.27947515 302.46922955 82.9752869 298.46507383 79.76953125 294.23828125 C77.11159825 290.87626004 74.20203631 287.75662082 71.3125 284.59375 C68.99803784 281.9977992 66.80501577 279.33444817 64.625 276.625 C61.34430866 272.56428414 57.92994025 268.69261758 54.375 264.875 C42.8074885 252.4224655 42.8074885 252.4224655 41 247 C10.64 247 -19.72 247 -51 247 C-51.66 248.32 -52.32 249.64 -53 251 C-54.33386485 252.57739205 -55.71426931 254.11596056 -57.125 255.625 C-60.23710342 259.01594789 -63.21418881 262.44711887 -66.0625 266.0625 C-69.21936904 270.06785558 -72.53095299 273.87771052 -75.9453125 277.6640625 C-78.14054536 280.15978351 -80.22807311 282.72365663 -82.3125 285.3125 C-85.59766341 289.36797759 -89.00911822 293.24490808 -92.5625 297.0625 C-96.62572319 301.42867667 -100.42182553 305.93536419 -104.1015625 310.62890625 C-106.6497242 313.81148681 -109.34819023 316.83912162 -112.08984375 319.85546875 C-113.28720173 321.19974182 -114.45236163 322.57419469 -115.56640625 323.98828125 C-126.2227371 337.31537171 -142.43215699 344.98519578 -159 348 C-162.06879625 348.28374458 -165.10687633 348.3339129 -168.1875 348.3125 C-169.01757568 348.30831055 -169.84765137 348.30412109 -170.70288086 348.29980469 C-188.41577515 347.9776586 -204.91400668 341.13069817 -217.96484375 329.125 C-225.99913307 320.73602996 -231.77111568 311.84973134 -236 301 C-236.4125 300.05511719 -236.825 299.11023438 -237.25 298.13671875 C-242.47510215 284.43896831 -242.22625536 265.70199593 -237 252 C-236.505 251.01 -236.505 251.01 -236 250 C-235.69837117 248.30947565 -235.43084839 246.61281815 -235.1796875 244.9140625 C-233.89883221 236.97086563 -232.00853908 229.19072531 -230.125 221.375 C-229.43810875 218.50828704 -228.75353798 215.64102623 -228.0703125 212.7734375 C-227.89935562 212.05631592 -227.72839874 211.33919434 -227.55226135 210.6003418 C-225.61109885 202.42029525 -223.80216966 194.21158356 -222 186 C-221.6937405 184.60659585 -221.38742646 183.21320369 -221.08105469 181.81982422 C-220.85687111 180.8001783 -220.85687111 180.8001783 -220.62815857 179.75993347 C-216.6303903 161.58341734 -212.487215 143.44985299 -208.15454102 125.35009766 C-206.07109234 116.63016468 -204.08828535 107.90060631 -202.25 99.125 C-198.37548013 80.82191249 -194.07189119 64.09532998 -178.546875 52.10546875 C-167.39136103 44.99832679 -156.19542066 43.39960113 -143.234375 43.5390625 C-141.74611573 43.54145439 -140.25785339 43.54235068 -138.76959229 43.5418396 C-135.67334679 43.54494314 -132.57757238 43.56132274 -129.48144531 43.58837891 C-125.53203696 43.62247481 -121.58314052 43.63000252 -117.63360214 43.62848854 C-114.56906335 43.62903453 -111.50463425 43.64003628 -108.44013214 43.65449142 C-106.98422319 43.66080881 -105.52830196 43.66478632 -104.07238007 43.66627884 C-88.01480549 43.70080156 -74.00433329 47.35051822 -62.07421875 58.7734375 C-58.97003181 62.10561557 -56.10919065 65.6046478 -53.28515625 69.17578125 C-50.23852282 72.94110769 -46.96110615 76.46890368 -43.65234375 80.00390625 C-42 82 -42 82 -42 84 C-35.07 84 -28.14 84 -21 84 C-21.0314209 81.83050781 -21.0628418 79.66101563 -21.09521484 77.42578125 C-21.19487547 70.2375154 -21.26100411 63.0492181 -21.31087303 55.86044312 C-21.34211387 51.50408215 -21.3844518 47.14843225 -21.45263672 42.79248047 C-21.51809141 38.58435129 -21.5537605 34.37690361 -21.56926346 30.16830444 C-21.58030337 28.5671415 -21.60186236 26.96601359 -21.63438034 25.36514282 C-21.92947992 10.22775687 -21.92947992 10.22775687 -16.56655884 4.35644531 C-11.68921541 0.1332719 -6.31484693 -1.48036575 0 0 Z M-163.73046875 81.7734375 C-166.21602755 85.30712351 -167.35567282 88.48464086 -168.3125 92.625 C-168.50851807 93.41495361 -168.70453613 94.20490723 -168.90649414 95.01879883 C-171.44147508 105.44038714 -173.67848489 115.93958175 -175.97436523 126.41601562 C-178.1803839 136.46125706 -180.52062619 146.4588072 -183.09741211 156.41674805 C-184.13352289 160.4358401 -185.11196993 164.43900628 -185.89453125 168.515625 C-187.26963539 175.60323335 -189.02354227 182.60436799 -190.71127319 189.62249756 C-193.52700013 201.34247321 -196.30931868 213.05683304 -198.6875 224.875 C-200.71200192 234.93429876 -203.12740913 244.87192687 -205.66796875 254.8125 C-205.89444092 255.69977783 -206.12091309 256.58705566 -206.35424805 257.5012207 C-206.7630062 259.08293703 -207.18010219 260.66254201 -207.60864258 262.23901367 C-210.46568359 272.95514655 -209.84150851 284.14812545 -204.93359375 294.1796875 C-199.47802328 303.4343516 -192.03367861 311.5524135 -181.7109375 315.14453125 C-177.79802562 316.04656041 -174.11840219 316.34520127 -170.125 316.3125 C-169.42246094 316.30831055 -168.71992188 316.30412109 -167.99609375 316.29980469 C-162.45374708 316.17943024 -158.00030728 315.31327347 -153 313 C-152.35160156 312.75636719 -151.70320313 312.51273438 -151.03515625 312.26171875 C-141.71260231 308.36655265 -135.29727388 299.59293674 -129.25390625 291.828125 C-122.76597198 283.68728546 -115.79002365 275.91507248 -108.75 268.25 C-104.80294986 263.94124269 -101.0841857 259.4947247 -97.4140625 254.94921875 C-94.66138156 251.58631566 -91.83819187 248.29069604 -89 245 C-85.31980472 240.73008949 -81.68583448 236.43261504 -78.125 232.0625 C-77.41085937 231.18722656 -76.69671875 230.31195312 -75.9609375 229.41015625 C-74.73272814 227.90058419 -73.50817297 226.38802345 -72.2890625 224.87109375 C-71.78117188 224.25363281 -71.27328125 223.63617187 -70.75 223 C-70.33234375 222.484375 -69.9146875 221.96875 -69.484375 221.4375 C-64.16258618 216.28376767 -59.0418086 216.56033361 -52.00268555 216.58007812 C-50.89314514 216.57160858 -49.78360474 216.56313904 -48.64044189 216.55441284 C-44.97241756 216.53101363 -41.30481208 216.53002154 -37.63671875 216.53125 C-35.08469983 216.52414943 -32.53268251 216.51645058 -29.98066711 216.50817871 C-24.63004498 216.49472656 -19.27957732 216.49298685 -13.92895508 216.49902344 C-7.75818144 216.50565776 -1.58800653 216.48282199 4.58264571 216.44570971 C10.5333708 216.4112281 16.48391246 216.40468282 22.43474388 216.40879822 C24.95966562 216.40710662 27.48459521 216.39746041 30.00945473 216.37965393 C33.54495007 216.35746703 37.07901062 216.36716738 40.61450195 216.38476562 C41.65321945 216.37150238 42.69193695 216.35823914 43.76213074 216.34457397 C50.43990037 216.42162756 54.82553264 217.69564575 60 222 C62.43359375 224.54296875 62.43359375 224.54296875 64.4375 227.1875 C68.14070881 231.94509466 72.03769347 236.40366832 76.15234375 240.80859375 C77.84536734 242.81659848 78.9574803 244.60384216 80 247 C80.66 247 81.32 247 82 247 C82.22429687 247.54398438 82.44859375 248.08796875 82.6796875 248.6484375 C84.40381928 251.71922842 86.71205213 254.09458611 89.125 256.625 C93.36711334 261.15603265 97.33509915 265.80859892 101.16796875 270.6953125 C103.98698556 274.24162363 106.99062834 277.61532564 110 281 C111.04300799 282.18632206 112.0846265 283.37386689 113.125 284.5625 C113.69605469 285.2121875 114.26710938 285.861875 114.85546875 286.53125 C116.60132788 288.54105505 118.32917164 290.563268 120.05078125 292.59375 C133.1960411 308.76237243 133.1960411 308.76237243 152.00073242 316.22485352 C160.96956078 316.71083862 169.02631426 316.56043838 177 312 C177.77730469 311.56429687 178.55460937 311.12859375 179.35546875 310.6796875 C189.61746563 304.38841303 195.72854765 295.47096483 199 284 C199.91159398 274.43886319 198.85171286 265.95369291 196.2734375 256.73046875 C194.60006009 250.7113648 193.32803259 244.60259607 192 238.5 C190.12223377 229.95520053 188.17058196 221.44898172 186.00390625 212.97265625 C184.73992139 208.01572681 183.55903848 203.03901936 182.375 198.0625 C182.16866943 197.1977002 181.96233887 196.33290039 181.74975586 195.44189453 C180.66673527 190.88203925 179.62082006 186.31623386 178.61181641 181.73950195 C177.7978893 178.09501828 176.96133788 174.45579565 176.125 170.81640625 C175.86827011 169.69798088 175.86827011 169.69798088 175.60635376 168.55696106 C174.89137499 165.44232783 174.1762549 162.32772942 173.45898438 159.21362305 C172.92970004 156.91484496 172.40221761 154.61565909 171.875 152.31640625 C171.71660645 151.63067032 171.55821289 150.94493439 171.39501953 150.23841858 C170.5475243 146.53560142 169.75981405 142.82747543 169.02734375 139.10009766 C168.030835 134.06445777 166.88151693 129.07406543 165.6875 124.08203125 C165.47311279 123.18054855 165.25872559 122.27906586 165.0378418 121.3502655 C164.58828066 119.46189802 164.13783156 117.57374174 163.68652344 115.68579102 C162.99940463 112.81000823 162.31591841 109.93337895 161.6328125 107.05664062 C161.19292438 105.210886 160.75282741 103.36518113 160.3125 101.51953125 C160.00928833 100.24273247 160.00928833 100.24273247 159.69995117 98.94013977 C157.85942287 89.47651264 157.85942287 89.47651264 153.3125 81.25 C152.85488281 80.69828125 152.39726563 80.1465625 151.92578125 79.578125 C145.16177064 74.03520352 137.75813499 74.54689924 129.40234375 74.56640625 C128.09471573 74.5611644 126.78708771 74.55592255 125.43983459 74.55052185 C122.68204034 74.54162317 119.9245362 74.54397781 117.16674805 74.55395508 C113.64385131 74.56546282 110.12195431 74.54519096 106.5991888 74.51603794 C103.22102153 74.49322304 99.84308612 74.50014393 96.46484375 74.50390625 C94.57559425 74.48705528 94.57559425 74.48705528 92.6481781 74.46986389 C84.0269948 74.53236389 84.0269948 74.53236389 77 79 C75.98292969 79.88558594 75.98292969 79.88558594 74.9453125 80.7890625 C70.76421322 85.00605104 67.00954768 89.40506513 63.33984375 94.0703125 C60.40745949 97.74191216 57.41295544 101.3529794 54.375 104.9375 C53.83657471 105.58855713 53.29814941 106.23961426 52.7434082 106.91040039 C52.21706787 107.5264917 51.69072754 108.14258301 51.1484375 108.77734375 C50.45500244 109.60093384 50.45500244 109.60093384 49.74755859 110.44116211 C44.51059214 115.11258301 39.42554323 115.43220395 32.76928711 115.37231445 C31.85960678 115.37596512 30.94992645 115.37961578 30.01268005 115.38337708 C27.01737577 115.39145748 24.02261668 115.37789424 21.02734375 115.36328125 C18.94039409 115.36276239 16.85344393 115.3632811 14.76649475 115.36479187 C10.39788494 115.36470226 6.0294601 115.3542951 1.66088867 115.33618164 C-3.93681365 115.31348096 -9.53424615 115.3129542 -15.13198185 115.31969929 C-19.43939103 115.3230415 -23.74673876 115.31640462 -28.05413628 115.30657005 C-30.11819576 115.30272319 -32.18226208 115.30156771 -34.24632454 115.3031559 C-37.13057598 115.303527 -40.01448211 115.29089401 -42.89868164 115.2746582 C-44.1760318 115.27837433 -44.1760318 115.27837433 -45.47918701 115.28216553 C-50.49595395 115.23712516 -54.62926279 114.96766277 -58.64990234 111.63061523 C-59.12379395 111.11184814 -59.59768555 110.59308105 -60.0859375 110.05859375 C-60.62049561 109.47956299 -61.15505371 108.90053223 -61.70581055 108.30395508 C-62.25664307 107.6880249 -62.80747559 107.07209473 -63.375 106.4375 C-63.9522583 105.80416748 -64.5295166 105.17083496 -65.12426758 104.51831055 C-68.69827496 100.5612478 -72.04888482 96.49595473 -75.25 92.23046875 C-83.4092751 81.17198765 -83.4092751 81.17198765 -95 75 C-96.95359549 74.89423754 -98.9103308 74.84153558 -100.86669922 74.82299805 C-102.04827606 74.81016281 -103.22985291 74.79732758 -104.44723511 74.78410339 C-105.7201944 74.77671646 -106.99315369 74.76932953 -108.3046875 74.76171875 C-109.61656036 74.753647 -110.92843323 74.74557526 -112.28005981 74.73725891 C-115.05568307 74.72226138 -117.83128101 74.71240865 -120.60693359 74.70483398 C-124.15336341 74.69376599 -127.69916644 74.65934977 -131.24537468 74.61966228 C-134.6401201 74.58716024 -138.03479854 74.58271541 -141.4296875 74.57421875 C-143.33305374 74.54795662 -143.33305374 74.54795662 -145.27487183 74.52116394 C-154.0722627 74.54283055 -157.55487321 75.50065806 -163.73046875 81.7734375 Z " fill="#030303" transform="translate(495,316)"/>
<path d="M0 0 C0.71220703 -0.02900391 1.42441406 -0.05800781 2.15820312 -0.08789062 C5.89291638 -0.13280392 7.96678605 0.17071687 11.13671875 2.20703125 C14.19710347 5.34902623 14.30972511 7.04533127 14.28515625 11.3203125 C14.28193359 12.30644531 14.27871094 13.29257812 14.27539062 14.30859375 C14.26282227 15.85740234 14.26282227 15.85740234 14.25 17.4375 C14.24548828 18.47777344 14.24097656 19.51804687 14.23632812 20.58984375 C14.22451952 23.16411962 14.20805075 25.73828146 14.1875 28.3125 C14.82776123 28.29155273 15.46802246 28.27060547 16.12768555 28.24902344 C19.04329575 28.16560716 21.95865452 28.11376031 24.875 28.0625 C26.38610352 28.01222656 26.38610352 28.01222656 27.92773438 27.9609375 C35.4378749 27.86179373 35.4378749 27.86179373 39.33203125 30.203125 C42.65521866 33.98106438 42.40310762 37.29716996 42.4375 42.125 C42.458125 42.83720703 42.47875 43.54941406 42.5 44.28320312 C42.53359352 48.82252703 42.09340897 51.77174155 39.1875 55.3125 C36.1130332 57.22861131 33.79562459 57.55162347 30.203125 57.5078125 C29.26855469 57.50136719 28.33398438 57.49492187 27.37109375 57.48828125 C25.91896484 57.46314453 25.91896484 57.46314453 24.4375 57.4375 C23.45394531 57.42847656 22.47039062 57.41945313 21.45703125 57.41015625 C19.03360593 57.38662785 16.61067778 57.35375368 14.1875 57.3125 C14.20321045 57.92246826 14.2189209 58.53243652 14.23510742 59.16088867 C14.29769813 61.9404971 14.33656622 64.71995692 14.375 67.5 C14.40013672 68.45970703 14.42527344 69.41941406 14.45117188 70.40820312 C14.54459154 79.40763128 14.54459154 79.40763128 11.1875 83.3125 C7.49299796 85.77550136 4.59108812 85.67979083 0.3125 85.6875 C-0.39519531 85.71199219 -1.10289062 85.73648438 -1.83203125 85.76171875 C-5.50132263 85.78221758 -7.62184972 85.43134036 -10.7578125 83.4765625 C-13.80911179 80.26283663 -13.93590589 77.67447255 -13.91015625 73.42578125 C-13.90693359 72.48798828 -13.90371094 71.55019531 -13.90039062 70.58398438 C-13.89201172 69.60751953 -13.88363281 68.63105469 -13.875 67.625 C-13.87048828 66.63693359 -13.86597656 65.64886719 -13.86132812 64.63085938 C-13.84954303 62.19134526 -13.83309011 59.75195311 -13.8125 57.3125 C-14.77289185 57.35177612 -14.77289185 57.35177612 -15.75268555 57.3918457 C-18.66820502 57.49611281 -21.58333198 57.56091753 -24.5 57.625 C-25.50740234 57.66689453 -26.51480469 57.70878906 -27.55273438 57.75195312 C-35.07245044 57.87604085 -35.07245044 57.87604085 -38.95703125 54.91796875 C-41.95145422 50.71316849 -42.05766248 47.54133532 -42.125 42.5 C-42.16850586 41.43168945 -42.16850586 41.43168945 -42.21289062 40.34179688 C-42.25780392 36.60708362 -41.95428313 34.53321395 -39.91796875 31.36328125 C-36.77597377 28.30289653 -35.07966873 28.19027489 -30.8046875 28.21484375 C-29.81855469 28.21806641 -28.83242188 28.22128906 -27.81640625 28.22460938 C-26.78386719 28.23298828 -25.75132812 28.24136719 -24.6875 28.25 C-23.12708984 28.25676758 -23.12708984 28.25676758 -21.53515625 28.26367188 C-18.96088038 28.27548048 -16.38671854 28.29194925 -13.8125 28.3125 C-13.83344727 27.67223877 -13.85439453 27.03197754 -13.87597656 26.37231445 C-13.95939284 23.45670425 -14.01123969 20.54134548 -14.0625 17.625 C-14.09601563 16.61759766 -14.12953125 15.61019531 -14.1640625 14.57226562 C-14.26320627 7.0621251 -14.26320627 7.0621251 -11.921875 3.16796875 C-8.15540482 -0.14513002 -4.81766928 0.06434999 0 0 Z " fill="#050505" transform="translate(383.8125,429.6875)"/>
<path d="M0 0 C3.76027936 1.88420046 6.34102894 4.52105461 8.2109375 8.28515625 C9.95682058 13.72941887 9.72684214 18.63225322 7.18359375 23.71875 C3.51144272 27.88713765 0.30330917 30.98339692 -5.3984375 31.58203125 C-9.65270064 31.70619561 -12.56535184 31.59421863 -16.50390625 29.84375 C-21.2242667 25.34816862 -23.32351037 20.81388765 -23.69140625 14.28125 C-23.46852293 9.10717284 -21.74539978 5.97031733 -18.12890625 2.34375 C-13.3271265 -2.0343433 -5.98621016 -1.84529047 0 0 Z " fill="#060606" transform="translate(603.12890625,489.65625)"/>
<path d="M0 0 C4.67452531 2.09318143 8.7877653 4.7171585 11.0625 9.4375 C12.385104 14.46339519 12.59464964 19.01671988 11 24 C10.34 24 9.68 24 9 24 C8.690625 25.1446875 8.690625 25.1446875 8.375 26.3125 C6.44447914 30.08579077 5.03933237 30.67677043 1 32 C-3.71176672 32.58735722 -8.63302446 33.16272482 -13.00390625 31.015625 C-14.5625 29.75 -14.5625 29.75 -17 27 C-17.53882813 26.41734375 -18.07765625 25.8346875 -18.6328125 25.234375 C-20.47902482 22.21713658 -20.36487419 20.01309963 -20.3125 16.5 C-20.30863281 15.3759375 -20.30476562 14.251875 -20.30078125 13.09375 C-20.01644131 10.16911066 -19.52133407 8.47292551 -18 6 C-17.34 6 -16.68 6 -16 6 C-16 5.34 -16 4.68 -16 4 C-10.70988605 0.39822029 -6.42838492 -1.40353071 0 0 Z " fill="#070707" transform="translate(568,456)"/>
<path d="M0 0 C2.86205702 1.57989389 5.05819428 3.36078519 7 6 C7 6.66 7 7.32 7 8 C7.66 8 8.32 8 9 8 C10.56056516 12.68169547 11.01999676 17.57311116 9.09375 22.15625 C6.48377113 26.64005986 3.83184016 29.85251548 -1 32 C-6.27963979 32.7564857 -10.55282201 32.65780818 -15.4375 30.4375 C-19.86131438 26.22948145 -22.19913993 22.58336354 -22.4375 16.5 C-22.16347161 11.46472833 -21.03912987 7.35513537 -17.6640625 3.45703125 C-12.55714019 -0.98972793 -6.46446176 -1.26668507 0 0 Z " fill="#060606" transform="translate(602,424)"/>
<path d="M0 0 C2.96246254 1.32109816 5.59034641 2.81778821 8 5 C8.33 5.99 8.66 6.98 9 8 C9.66 8 10.32 8 11 8 C13.23496122 12.46992244 12.61620803 18.16247906 12 23 C9.76617417 27.36578338 6.54579821 30.19002163 2 32 C-5.095395 32.93446244 -10.25983398 32.30512451 -16 28 C-19.36259972 24.41322696 -19.88715433 21.49520509 -20.25 16.6875 C-19.90706235 11.62916973 -18.87031994 7.99325177 -15.3359375 4.2265625 C-10.52539374 0.14430823 -6.24516321 -1.47455242 0 0 Z " fill="#060606" transform="translate(632,456)"/>
<path d="M0 0 C0.66 0 1.32 0 2 0 C2 2 2 2 -0.1875 4.25 C-1.115625 5.1575 -2.04375 6.065 -3 7 C-5.82860334 10.12592813 -8.16270239 13.19416924 -10 17 C-11.375 18.8125 -11.375 18.8125 -13 20 C-15.1015625 19.57421875 -15.1015625 19.57421875 -17 19 C-16.27554687 18.21496094 -15.55109375 17.42992187 -14.8046875 16.62109375 C-13.82792591 15.56007908 -12.85137722 14.49886839 -11.875 13.4375 C-11.37234619 12.8919043 -10.86969238 12.34630859 -10.35180664 11.78417969 C-7.63949067 8.82879326 -4.99429004 5.84237698 -2.4375 2.75 C-1.633125 1.8425 -0.82875 0.935 0 0 Z " fill="#212121" transform="translate(381,589)"/>
<path d="M0 0 C0.33 1.32 0.66 2.64 1 4 C0.01 4.495 0.01 4.495 -1 5 C-1.99 6.485 -1.99 6.485 -3 8 C-3.99 8.66 -4.98 9.32 -6 10 C-6.33 10.99 -6.66 11.98 -7 13 C-9.06640625 13.94921875 -9.06640625 13.94921875 -11.5625 14.6875 C-12.80193359 15.06455078 -12.80193359 15.06455078 -14.06640625 15.44921875 C-14.70449219 15.63097656 -15.34257812 15.81273437 -16 16 C-12.4627334 12.35219382 -8.75360964 9.02006415 -4.8671875 5.74609375 C-2.96855729 3.97059646 -1.49454708 2.1211429 0 0 Z " fill="#DDDDDD" transform="translate(382,636)"/>
<path d="M0 0 C0.33 0.66 0.66 1.32 1 2 C0.67 2.66 0.34 3.32 0 4 C-0.66 4 -1.32 4 -2 4 C-2 5.65 -2 7.3 -2 9 C-5.75 10.125 -5.75 10.125 -8 9 C-8.66 9.66 -9.32 10.32 -10 11 C-10 10.34 -10 9.68 -10 9 C-10.66 8.67 -11.32 8.34 -12 8 C-11.20335937 7.63648438 -11.20335937 7.63648438 -10.390625 7.265625 C-6.26007376 5.30587441 -3.02889453 3.53371028 0 0 Z " fill="#212121" transform="translate(354,620)"/>
<path d="M0 0 C0.66 0.99 1.32 1.98 2 3 C1.67 3.99 1.34 4.98 1 6 C0.34 6 -0.32 6 -1 6 C-1.33 7.32 -1.66 8.64 -2 10 C-3.65 10 -5.3 10 -7 10 C-4.75421558 6.59260295 -2.48862878 3.23521742 0 0 Z " fill="#DCDCDC" transform="translate(565,402)"/>
<path d="M0 0 C0.33 0.99 0.66 1.98 1 3 C-0.4515549 4.67257355 -1.91144409 6.33791758 -3.375 8 C-4.18710937 8.928125 -4.99921875 9.85625 -5.8359375 10.8125 C-6.55007813 11.534375 -7.26421875 12.25625 -8 13 C-8.66 13 -9.32 13 -10 13 C-10 11 -10 11 -7.8125 8.75 C-6.884375 7.8425 -5.95625 6.935 -5 6 C-3.28800793 4.03352262 -1.64629473 2.02259067 0 0 Z " fill="#D4D4D4" transform="translate(711,634)"/>
<path d="M0 0 C0.66 0.99 1.32 1.98 2 3 C1.57074219 3.41894531 1.14148438 3.83789062 0.69921875 4.26953125 C-1.01469001 6.01496017 -2.60448724 7.82306274 -4.1875 9.6875 C-4.71730469 10.31011719 -5.24710937 10.93273437 -5.79296875 11.57421875 C-6.19128906 12.04472656 -6.58960938 12.51523437 -7 13 C-7.66 12.34 -8.32 11.68 -9 11 C-6.03 7.37 -3.06 3.74 0 0 Z " fill="#D1D1D1" transform="translate(397,618)"/>
<path d="M0 0 C1.07765625 0.03609375 2.1553125 0.0721875 3.265625 0.109375 C4.49539063 0.17898438 4.49539063 0.17898438 5.75 0.25 C5.75 0.58 5.75 0.91 5.75 1.25 C4.71939453 1.30607422 4.71939453 1.30607422 3.66796875 1.36328125 C2.76691406 1.42902344 1.86585938 1.49476563 0.9375 1.5625 C0.04417969 1.62050781 -0.84914063 1.67851562 -1.76953125 1.73828125 C-4.55604 2.31313581 -5.49135754 3.0706856 -7.25 5.25 C-8.24 4.92 -9.23 4.59 -10.25 4.25 C-7.0246569 0.27312065 -5.05259733 -0.21967814 0 0 Z " fill="#2D2D2D" transform="translate(596.25,423.75)"/>
<path d="M0 0 C2.64752004 2.57784846 4.94432065 4.91648098 7 8 C6.21625 7.814375 5.4325 7.62875 4.625 7.4375 C2.02910225 6.74037734 2.02910225 6.74037734 0 8 C-0.38063221 5.6739143 -0.71269945 3.33944736 -1 1 C-0.67 0.67 -0.34 0.34 0 0 Z " fill="#D9D9D9" transform="translate(417,406)"/>
<path d="M0 0 C3.375 0.25 3.375 0.25 7 1 C8.4375 3.0625 8.4375 3.0625 9 5 C5 5 5 5 2.25 2.5 C1.5075 1.675 0.765 0.85 0 0 Z " fill="#222222" transform="translate(606,645)"/>
<path d="M0 0 C0.66 0 1.32 0 2 0 C2 2 2 2 -0.1875 4.3125 C-1.115625 5.199375 -2.04375 6.08625 -3 7 C-3.928125 7.928125 -4.85625 8.85625 -5.8125 9.8125 C-6.534375 10.534375 -7.25625 11.25625 -8 12 C-8.66 11.67 -9.32 11.34 -10 11 C-8.38150935 9.16053461 -6.75581169 7.32848583 -5.125 5.5 C-4.66480469 4.97535156 -4.20460938 4.45070313 -3.73046875 3.91015625 C-2.52827924 2.56858245 -1.26754054 1.28000815 0 0 Z " fill="#343434" transform="translate(381,589)"/>
<path d="M0 0 C11.70615034 -0.55353075 11.70615034 -0.55353075 16 3 C15.67 3.66 15.34 4.32 15 5 C13.0625 4.625 13.0625 4.625 11 4 C10.67 3.34 10.34 2.68 10 2 C7.64400765 1.53248212 7.64400765 1.53248212 4.9375 1.375 C4.01839844 1.30023438 3.09929688 1.22546875 2.15234375 1.1484375 C1.08693359 1.07496094 1.08693359 1.07496094 0 1 C0 0.67 0 0.34 0 0 Z " fill="#1D1D1D" transform="translate(590,489)"/>
<path d="M0 0 C0.33 0.66 0.66 1.32 1 2 C1.66 2.33 2.32 2.66 3 3 C2.67 3.99 2.34 4.98 2 6 C-0.31 6.33 -2.62 6.66 -5 7 C-4.360625 6.21625 -3.72125 5.4325 -3.0625 4.625 C-1.01857687 2.20460719 -1.01857687 2.20460719 0 0 Z " fill="#DADADA" transform="translate(397,508)"/>
<path d="M0 0 C0.66 0.99 1.32 1.98 2 3 C-0.31 4.98 -2.62 6.96 -5 9 C-5.66 8.67 -6.32 8.34 -7 8 C-4.69 5.36 -2.38 2.72 0 0 Z " fill="#CBCBCB" transform="translate(423,588)"/>
<path d="M0 0 C2.93200474 2.85276137 5.64315404 5.65079784 8 9 C5.13275314 8.42655063 4.1385485 8.1385485 2 6 C1.28591666 4.01643517 0.61382258 2.01684563 0 0 Z " fill="#2A2A2A" transform="translate(587,576)"/>
<path d="M0 0 C0.75 1.75 0.75 1.75 1 4 C-0.85055798 6.23343204 -2.40383083 7.70191542 -5 9 C-5.66 8.34 -6.32 7.68 -7 7 C-4.66666667 4.66666667 -2.33333333 2.33333333 0 0 Z " fill="#202020" transform="translate(531,394)"/>
<path d="M0 0 C0.66 0.33 1.32 0.66 2 1 C-0.97 3.64 -3.94 6.28 -7 9 C-7.66 8.67 -8.32 8.34 -9 8 C-6.03 5.36 -3.06 2.72 0 0 Z " fill="#383838" transform="translate(318,367)"/>
<path d="M0 0 C0.66 0.33 1.32 0.66 2 1 C1 4 1 4 -0.8125 5 C-1.534375 5.33 -2.25625 5.66 -3 6 C-4.35113205 6.97581759 -5.68946944 7.97029741 -7 9 C-5.64978174 4.58110387 -3.73884332 2.65654657 0 0 Z " fill="#333333" transform="translate(588,490)"/>
<path d="M0 0 C1.32 0.66 2.64 1.32 4 2 C-0.75 6 -0.75 6 -3 6 C-2.42655063 3.13275314 -2.1385485 2.1385485 0 0 Z " fill="#101010" transform="translate(604,449)"/>
<path d="M0 0 C0.66 0.66 1.32 1.32 2 2 C1.625 4 1.625 4 1 6 C1 6.66 1 7.32 1 8 C0.01 8.495 0.01 8.495 -1 9 C-1.66 9.99 -2.32 10.98 -3 12 C-2.49202991 7.6822542 -1.80317221 3.96697886 0 0 Z " fill="#2C2C2C" transform="translate(300,389)"/>
<path d="M0 0 C1.11375 0.1546875 1.11375 0.1546875 2.25 0.3125 C1.92 1.3025 1.59 2.2925 1.25 3.3125 C-0.59765625 4.04296875 -0.59765625 4.04296875 -2.8125 4.5 C-3.54597656 4.65855469 -4.27945312 4.81710937 -5.03515625 4.98046875 C-5.88400391 5.14482422 -5.88400391 5.14482422 -6.75 5.3125 C-3.42692308 0.38942308 -3.42692308 0.38942308 0 0 Z " fill="#E2E2E2" transform="translate(338.75,392.6875)"/>
<path d="M0 0 C1.32 0.33 2.64 0.66 4 1 C-1.14285714 5.42857143 -1.14285714 5.42857143 -5 6 C-3.35 4.02 -1.7 2.04 0 0 Z " fill="#222222" transform="translate(388,581)"/>
<path d="M0 0 C1.21236328 0.02707031 1.21236328 0.02707031 2.44921875 0.0546875 C3.37154297 0.08949219 3.37154297 0.08949219 4.3125 0.125 C4.3125 0.455 4.3125 0.785 4.3125 1.125 C3.178125 1.24875 2.04375 1.3725 0.875 1.5 C-0.8884375 1.809375 -0.8884375 1.809375 -2.6875 2.125 C-3.0175 2.785 -3.3475 3.445 -3.6875 4.125 C-5.0075 3.465 -6.3275 2.805 -7.6875 2.125 C-4.48369983 -0.01086678 -3.66810033 -0.10632175 0 0 Z " fill="#4A4A4A" transform="translate(627.6875,455.875)"/>
<path d="M0 0 C-1.36983503 3.16115776 -1.9890638 3.9927092 -5 6 C-5 4.68 -5 3.36 -5 2 C-2 0 -2 0 0 0 Z " fill="#151515" transform="translate(392,624)"/>
<path d="M0 0 C0.99 0 1.98 0 3 0 C3 0.99 3 1.98 3 3 C1.35 3.66 -0.3 4.32 -2 5 C-2 2 -2 2 0 0 Z " fill="#161616" transform="translate(572,482)"/>
<path d="M0 0 C0 0.66 0 1.32 0 2 C-4.455 3.485 -4.455 3.485 -9 5 C-4.5 0 -4.5 0 0 0 Z " fill="#CCCCCC" transform="translate(375,647)"/>
</svg>
