<?xml version="1.0" encoding="UTF-8"?>
<svg version="1.1" xmlns="http://www.w3.org/2000/svg" width="225" height="225">
<path d="M0 0 C18.52477706 4.24173082 33.01965043 2.90089135 51.27026367 -1.57104492 C63.64509543 -4.56593469 75.12264055 -6.10116791 86.5390625 0.56640625 C103.09957226 11.8576629 110.9114924 30.10608067 115.75 48.9375 C115.93546387 49.65744141 116.12092773 50.37738281 116.31201172 51.11914062 C121.42935317 71.6242608 126.83374284 99.49300996 115.75 118.9375 C112.49841917 124.05025504 108.66991662 126.94793201 102.75390625 128.44140625 C92.05483829 130.25319138 81.7330578 125.35323603 72.75 119.9375 C68.04405507 116.49878517 63.67364575 112.73247379 59.4140625 108.7578125 C48.64449917 98.744008 35.54287472 94.14911578 20.73046875 94.65234375 C5.48240657 96.1112016 -5.07670071 99.64516762 -16.328125 110.30859375 C-26.81596543 119.7448459 -40.56395567 129.61377967 -55.25 128.875 C-61.58586043 128.00041804 -66.06375933 125.76503793 -70.0078125 120.6640625 C-75.8820556 111.44121705 -76.58976357 103.07853216 -76.5 92.375 C-76.49323242 91.21548828 -76.48646484 90.05597656 -76.47949219 88.86132812 C-76.37748604 80.38295691 -75.8648569 72.27786889 -74.25 63.9375 C-74.12109375 63.25349121 -73.9921875 62.56948242 -73.859375 61.86474609 C-69.89320646 41.21220874 -63.87530102 16.01638878 -45.69921875 3.12890625 C-30.42915037 -6.30460266 -16.87885948 -4.19498461 0 0 Z M-44.625 12.75 C-63.60754795 32.62584432 -69.39300463 67.48985666 -69.28515625 94.109375 C-68.93058967 102.72274839 -68.02941453 111.71966396 -61.5 118 C-56.67648192 120.87555886 -53.10147505 121.57018476 -47.71484375 120.375 C-36.71063698 116.82832041 -28.1013637 109.86306551 -19.74609375 102.109375 C-6.3760404 90.47596395 8.99563155 86.1800821 26.5 87.1875 C29.25659344 87.39551026 31.99879318 87.65934996 34.75 87.9375 C35.67683594 88.01613281 36.60367188 88.09476562 37.55859375 88.17578125 C49.3622398 89.78448835 58.96573246 97.83563319 67.55834961 105.4934082 C76.02250678 112.9615025 87.06553298 121.63189807 98.9375 120.9375 C104.29613125 119.53195738 107.20028562 117.55171467 109.97265625 112.875 C120.48428259 89.96794331 110.5816306 56.80116596 102.50390625 34.43359375 C97.97695285 22.52407188 91.5903178 11.63924527 79.75 5.9375 C69.29039996 1.9700655 58.55663776 4.66886348 48.04003906 7.16113281 C28.96466889 11.68133777 15.25269151 12.12392791 -3.77954102 7.16113281 C-18.69616451 3.30436324 -32.54377134 1.59809662 -44.625 12.75 Z " fill="#C828ED" transform="translate(90.25,50.0625)"/>
<path d="M0 0 C6.35609643 -0.16961493 12.17355383 0.61423142 18.34375 2.11328125 C17.68375 2.44328125 17.02375 2.77328125 16.34375 3.11328125 C16.34375 3.77328125 16.34375 4.43328125 16.34375 5.11328125 C15.71919922 5.18321289 15.09464844 5.25314453 14.45117188 5.32519531 C11.57999768 5.65566725 8.71211648 6.00929709 5.84375 6.36328125 C4.86148438 6.47285156 3.87921875 6.58242188 2.8671875 6.6953125 C-7.77089412 8.04280284 -14.89319301 11.70551195 -21.65625 20.11328125 C-37.51382952 42.82253192 -45.08977119 79.80536086 -40.65625 107.11328125 C-39.36362788 112.0406032 -37.77718795 115.83665748 -34.40625 119.67578125 C-29.79539612 122.08600032 -26.13034898 122.65758302 -21.1171875 121.5546875 C-10.11660193 117.98821523 -1.51158208 111.04252942 6.84765625 103.28515625 C13.68145276 97.33900467 23.53986411 90.15378057 32.96875 90.09765625 C35.46875 90.36328125 35.46875 90.36328125 39.34375 91.11328125 C36.34375 93.11328125 36.34375 93.11328125 33.21875 93.61328125 C32.27 93.77828125 31.32125 93.94328125 30.34375 94.11328125 C30.01375 94.77328125 29.68375 95.43328125 29.34375 96.11328125 C30.4575 95.94828125 31.57125 95.78328125 32.71875 95.61328125 C37.59885338 94.9923362 42.43236948 95.02270251 47.34375 95.11328125 C43.86336884 97.43353535 40.80956047 97.80586258 36.78125 98.42578125 C25.43739363 100.41435077 18.64739825 104.54063227 10.265625 112.484375 C-0.22221543 121.92062715 -13.97020567 131.78956092 -28.65625 131.05078125 C-34.99211043 130.17619929 -39.47000933 127.94081918 -43.4140625 122.83984375 C-49.2883056 113.6169983 -49.99601357 105.25431341 -49.90625 94.55078125 C-49.89948242 93.39126953 -49.89271484 92.23175781 -49.88574219 91.03710938 C-49.78373604 82.55873816 -49.2711069 74.45365014 -47.65625 66.11328125 C-47.52734375 65.42927246 -47.3984375 64.74526367 -47.265625 64.04052734 C-43.21963526 42.972347 -37.13898887 18.95745102 -19.24609375 5.26953125 C-12.70391208 0.98222827 -7.60116955 0.32416753 0 0 Z " fill="#8D1DEF" transform="translate(63.65625,47.88671875)"/>
<path d="M0 0 C1.30066406 -0.00128906 2.60132813 -0.00257812 3.94140625 -0.00390625 C7.88640455 0.63522755 9.04952864 1.43886998 11.4375 4.5625 C12.79189668 7.27129335 12.50251451 9.57183268 12.4375 12.5625 C13.675 12.645 14.9125 12.7275 16.1875 12.8125 C19.28253187 13.19595528 20.32161781 13.47335986 22.875 15.4375 C26.25193931 20.03013747 25.87056961 25.10242627 25.4375 30.5625 C24.5 34.0625 24.5 34.0625 22.4375 36.5625 C19.47881779 37.64315343 16.55818299 38.18304588 13.4375 38.5625 C13.19 39.8 12.9425 41.0375 12.6875 42.3125 C11.91615031 46.16924847 10.6222629 48.20129281 7.4375 50.5625 C3.94140625 51.12890625 3.94140625 51.12890625 0 51.125 C-1.29808594 51.14691406 -2.59617187 51.16882813 -3.93359375 51.19140625 C-8.39096985 50.41892234 -9.83605604 49.1089271 -12.5625 45.5625 C-13.375 41.75 -13.375 41.75 -13.5625 38.5625 C-14.50222656 38.38074219 -14.50222656 38.38074219 -15.4609375 38.1953125 C-16.27820312 38.02773437 -17.09546875 37.86015625 -17.9375 37.6875 C-18.74960937 37.52507812 -19.56171875 37.36265625 -20.3984375 37.1953125 C-22.5625 36.5625 -22.5625 36.5625 -24.5625 34.5625 C-26.45927459 28.89649385 -26.2737079 22.65869171 -24.375 17.0625 C-22.270682 14.15999241 -21.01505995 13.40458779 -17.5625 12.5625 C-16.2425 12.5625 -14.9225 12.5625 -13.5625 12.5625 C-13.4696875 10.9846875 -13.4696875 10.9846875 -13.375 9.375 C-11.74269208 1.715709 -7.42635576 -0.12537045 0 0 Z M-4.5625 8.5625 C-4.61148438 9.34496094 -4.66046875 10.12742187 -4.7109375 10.93359375 C-4.78570312 11.94550781 -4.86046875 12.95742187 -4.9375 14 C-5.00710937 15.00933594 -5.07671875 16.01867187 -5.1484375 17.05859375 C-5.28507812 17.88488281 -5.42171875 18.71117187 -5.5625 19.5625 C-7.99637753 20.77943876 -9.98088846 20.88209896 -12.6875 21.125 C-14.05261719 21.25068359 -14.05261719 21.25068359 -15.4453125 21.37890625 C-16.14398438 21.43949219 -16.84265625 21.50007813 -17.5625 21.5625 C-17.5625 24.2025 -17.5625 26.8425 -17.5625 29.5625 C-15.42274575 30.81871612 -15.42274575 30.81871612 -12.125 30.5625 C-8.5625 30.5625 -8.5625 30.5625 -5.5625 31.5625 C-5.2325 35.1925 -4.9025 38.8225 -4.5625 42.5625 C-1.5925 42.5625 1.3775 42.5625 4.4375 42.5625 C4.7675 38.9325 5.0975 35.3025 5.4375 31.5625 C13.0625 30.5625 13.0625 30.5625 16.4375 30.5625 C16.4375 27.5925 16.4375 24.6225 16.4375 21.5625 C13.01953125 21.22070312 13.01953125 21.22070312 9.6015625 20.87890625 C7.4375 20.5625 7.4375 20.5625 5.4375 19.5625 C5.0234375 17.05859375 5.0234375 17.05859375 4.8125 14 C4.73773438 12.98808594 4.66296875 11.97617188 4.5859375 10.93359375 C4.53695312 10.15113281 4.48796875 9.36867188 4.4375 8.5625 C1.4675 8.5625 -1.5025 8.5625 -4.5625 8.5625 Z " fill="#9D30EA" transform="translate(68.5625,74.4375)"/>
<path d="M0 0 C18.52477706 4.24173082 33.01965043 2.90089135 51.27026367 -1.57104492 C61.58305714 -4.06644763 71.54129893 -5.77475493 81.75 -2.0625 C83.0625 0 83.0625 0 83.75 1.9375 C84.74 2.2675 85.73 2.5975 86.75 2.9375 C86.75 3.5975 86.75 4.2575 86.75 4.9375 C83.88280189 5.75669946 82.31672077 6.18151861 79.52734375 4.98046875 C76.06417802 3.67995504 73.19458057 3.63640303 69.5 3.625 C68.25734375 3.60824219 67.0146875 3.59148438 65.734375 3.57421875 C61.92669173 3.75712057 58.69851515 4.82910947 55.12939453 6.11108398 C33.15133864 13.74454584 14.82651106 13.00632953 -7.4140625 7.34765625 C-12.03410869 6.18035338 -16.50880756 5.39095545 -21.25 4.9375 C-21.25 4.6075 -21.25 4.2775 -21.25 3.9375 C-17.62 3.6075 -13.99 3.2775 -10.25 2.9375 C-10.25 2.2775 -10.25 1.6175 -10.25 0.9375 C-17.35590652 -1.20767933 -24.6374348 -2.14741793 -31.95703125 -0.42578125 C-33.09205078 -0.24595703 -33.09205078 -0.24595703 -34.25 -0.0625 C-34.91 -0.7225 -35.57 -1.3825 -36.25 -2.0625 C-23.78278273 -5.46776702 -12.29887836 -3.05669974 0 0 Z " fill="#AA23F2" transform="translate(90.25,50.0625)"/>
<path d="M0 0 C-3 2 -3 2 -6.125 2.5 C-7.07375 2.665 -8.0225 2.83 -9 3 C-9.33 3.66 -9.66 4.32 -10 5 C-8.88625 4.835 -7.7725 4.67 -6.625 4.5 C-1.74489662 3.87905495 3.08861948 3.90942126 8 4 C4.51961884 6.3202541 1.46581047 6.69258133 -2.5625 7.3125 C-13.90635637 9.30106952 -20.69635175 13.42735102 -29.078125 21.37109375 C-39.56596543 30.8073459 -53.31395567 40.67627967 -68 39.9375 C-74.12708638 39.10926098 -78.70044104 36.80874702 -82.640625 31.99609375 C-83.96973339 30.01338536 -85.14618593 28.23018101 -86 26 C-85.505 24.515 -85.505 24.515 -85 23 C-84.67 24.32 -84.34 25.64 -84 27 C-83.34 27 -82.68 27 -82 27 C-82 27.99 -82 28.98 -82 30 C-81.34 30 -80.68 30 -80 30 C-80.42577806 25.9551084 -80.85696369 22.43705539 -82.125 18.5625 C-83.21777067 14.11336227 -82.74992417 10.46914267 -82 6 C-81.67 6 -81.34 6 -81 6 C-80.83564453 7.28583984 -80.83564453 7.28583984 -80.66796875 8.59765625 C-79.35763703 19.35997267 -79.35763703 19.35997267 -73.8125 28.375 C-69.23670156 31.01879465 -65.53590673 31.55789948 -60.4609375 30.44140625 C-49.46035193 26.87493398 -40.85533208 19.92924817 -32.49609375 12.171875 C-23.11120815 4.00599645 -12.59354256 -2.43745985 0 0 Z " fill="#9A20F0" transform="translate(103,139)"/>
<path d="M0 0 C13.84965123 5.06931192 21.27505714 17.50921497 27.39453125 30.23828125 C31.32939627 39.13357527 33.99188923 48.32642646 35 58 C34.01 58.495 34.01 58.495 33 59 C32.70833333 57.6875 32.41666667 56.375 32.125 55.0625 C31.94324219 54.24652344 31.76148438 53.43054688 31.57421875 52.58984375 C31.19849769 50.8952651 30.82597242 49.19997392 30.45703125 47.50390625 C30.28558594 46.71886719 30.11414063 45.93382812 29.9375 45.125 C29.78152344 44.40570313 29.62554687 43.68640625 29.46484375 42.9453125 C28.9829213 40.80362611 28.9829213 40.80362611 28 38 C27.34 38 26.68 38 26 38 C25.67 40.64 25.34 43.28 25 46 C25.66 46 26.32 46 27 46 C27.20496094 46.99902344 27.40992188 47.99804688 27.62109375 49.02734375 C27.89050781 50.31769531 28.15992188 51.60804687 28.4375 52.9375 C28.70433594 54.22527344 28.97117188 55.51304688 29.24609375 56.83984375 C29.67181616 59.84638879 29.67181616 59.84638879 31 61 C31.07205511 62.68608966 31.08386068 64.37500659 31.0625 66.0625 C31.05347656 66.98160156 31.04445312 67.90070313 31.03515625 68.84765625 C31.02355469 69.55792969 31.01195312 70.26820312 31 71 C31.66 71 32.32 71 33 71 C33.04962457 75.87465957 33.08582554 80.74917041 33.10986328 85.62402344 C33.11988957 87.28062503 33.13351406 88.93720907 33.15087891 90.59375 C33.17527621 92.98181505 33.18651694 95.36964508 33.1953125 97.7578125 C33.20563507 98.49242706 33.21595764 99.22704163 33.22659302 99.98391724 C33.22754068 104.37696359 32.62276337 107.91782363 31 112 C30.34 112 29.68 112 29 112 C29.15597656 110.89785156 29.31195313 109.79570312 29.47265625 108.66015625 C33.3946259 79.07250111 28.02493886 42.83004988 10.57421875 17.96875 C5.91025972 12.03508784 -0.18469758 7.86745964 -7.63671875 6.26953125 C-12.73834158 5.68769327 -17.87548592 5.85938833 -23 6 C-19.23688303 3.49125535 -17.11237925 3.73236786 -12.625 3.75 C-11.31789062 3.74484375 -10.01078125 3.7396875 -8.6640625 3.734375 C-5.24634812 3.98214107 -3.07900462 4.61089312 0 6 C2.70886941 6.16798262 2.70886941 6.16798262 5 6 C5 5.34 5 4.68 5 4 C3.68 4 2.36 4 1 4 C0.67 2.68 0.34 1.36 0 0 Z " fill="#D432EF" transform="translate(172,49)"/>
<path d="M0 0 C0.33 0.66 0.66 1.32 1 2 C1.85464844 1.98839844 2.70929687 1.97679688 3.58984375 1.96484375 C4.69457031 1.95582031 5.79929687 1.94679688 6.9375 1.9375 C8.03964844 1.92589844 9.14179687 1.91429688 10.27734375 1.90234375 C13 2 13 2 14 3 C14.07226502 4.85287502 14.0838122 6.70833878 14.0625 8.5625 C14.05347656 9.57441406 14.04445313 10.58632812 14.03515625 11.62890625 C14.02355469 12.41136719 14.01195313 13.19382812 14 14 C15.17369141 14.07347656 15.17369141 14.07347656 16.37109375 14.1484375 C17.38300781 14.22320312 18.39492187 14.29796875 19.4375 14.375 C20.44683594 14.44460937 21.45617187 14.51421875 22.49609375 14.5859375 C23.73552734 14.79089844 23.73552734 14.79089844 25 15 C26.25069801 17.50139602 26.13302467 19.27392691 26.125 22.0625 C26.12886719 23.41021484 26.12886719 23.41021484 26.1328125 24.78515625 C26 27 26 27 25 28 C23.14712498 28.07226502 21.29166122 28.0838122 19.4375 28.0625 C18.42558594 28.05347656 17.41367188 28.04445313 16.37109375 28.03515625 C15.19740234 28.01775391 15.19740234 28.01775391 14 28 C14 28.99 14 29.98 14 31 C15.60332791 31.08121924 17.20784026 31.13929134 18.8125 31.1875 C19.70582031 31.22230469 20.59914063 31.25710937 21.51953125 31.29296875 C24.48110221 30.9431769 25.04749604 30.13153011 27 28 C27.99 28 28.98 28 30 28 C30 23.38 30 18.76 30 14 C29.34 14 28.68 14 28 14 C28 12.68 28 11.36 28 10 C31 11 31 11 32.1875 12.9375 C33.68435342 18.57948598 33.56972974 23.87300898 32.0625 29.5 C29.02878523 33.17723003 25.58800372 33.44212953 21 34 C20.7525 35.2375 20.505 36.475 20.25 37.75 C19.47886761 41.60566196 18.19197969 43.64774046 15 46 C11.46875 46.49609375 11.46875 46.49609375 7.5 46.4375 C6.1903125 46.43621094 4.880625 46.43492188 3.53125 46.43359375 C-0.03584652 45.99559849 -1.53960211 45.56709881 -4 43 C-4 42.34 -4 41.68 -4 41 C-2.35 41.33 -0.7 41.66 1 42 C1.33 37.05 1.66 32.1 2 27 C2.33 27 2.66 27 3 27 C3 30.63 3 34.26 3 38 C5.97 38 8.94 38 12 38 C12 34.37 12 30.74 12 27 C16.98777148 24.50611426 18.66983248 25.11163875 24 26 C24 23.03 24 20.06 24 17 C22.576875 17.04125 21.15375 17.0825 19.6875 17.125 C16.01939967 17.23132175 15.20380017 17.13586678 12 15 C11.70703125 12.3984375 11.70703125 12.3984375 11.8125 9.375 C11.83957031 8.37210938 11.86664063 7.36921875 11.89453125 6.3359375 C11.92933594 5.56507812 11.96414062 4.79421875 12 4 C9.03 4 6.06 4 3 4 C3.03480469 4.77085938 3.06960937 5.54171875 3.10546875 6.3359375 C3.13253906 7.33882813 3.15960938 8.34171875 3.1875 9.375 C3.22230469 10.37273437 3.25710937 11.37046875 3.29296875 12.3984375 C3.19628906 13.25695312 3.09960938 14.11546875 3 15 C-0.31371 17.20914 -1.3446021 17.22481553 -5.1875 17.125 C-6.08855469 17.10695313 -6.98960938 17.08890625 -7.91796875 17.0703125 C-8.60503906 17.04710938 -9.29210938 17.02390625 -10 17 C-10 16.67 -10 16.34 -10 16 C-4.555 15.505 -4.555 15.505 1 15 C0.67 12.03 0.34 9.06 0 6 C-0.66 6 -1.32 6 -2 6 C-1.125 1.125 -1.125 1.125 0 0 Z " fill="#AD42F5" transform="translate(61,79)"/>
<path d="M0 0 C1.39992188 0.11601562 1.39992188 0.11601562 2.828125 0.234375 C8.31138057 0.99694697 12.76880111 3.22726481 17.5625 5.875 C18.49388794 6.3846228 18.49388794 6.3846228 19.4440918 6.90454102 C23.77941912 9.44807035 23.77941912 9.44807035 24.90234375 12.2578125 C24.93457031 12.83273438 24.96679688 13.40765625 25 14 C25.66 14 26.32 14 27 14 C28.42944945 16.35438733 29.08661261 17.48032433 28.625 20.25 C28.41875 20.8275 28.2125 21.405 28 22 C27.59136719 21.54496094 27.18273437 21.08992188 26.76171875 20.62109375 C24.84390924 18.85636881 23.21328372 18.05255771 20.8125 17.0625 C17.86602533 15.82535839 15.0930092 14.5075289 12.3125 12.9375 C-1.1376232 6.09114471 -18.38431458 6.11410511 -33 8 C-32.1953125 6.046875 -32.1953125 6.046875 -31 4 C-27.875 3.25 -27.875 3.25 -25 3 C-25.66 2.34 -26.32 1.68 -27 1 C-22.13852399 -3.86147601 -6.38698094 -0.57360374 0 0 Z " fill="#B71FF0" transform="translate(125,137)"/>
<path d="M0 0 C2.72622806 2.20541563 4.43159226 4.86318452 6 8 C6.04276749 12.35373065 5.48511098 16.04999099 3.5 19.9375 C-0.04487578 22.86202252 -3.42540789 23.81701632 -8 24 C-12.68541623 22.49713064 -15.61289102 20.31515855 -18 16 C-18.78416684 11.14296664 -18.74662805 7.32733876 -16.3125 3 C-11.32122418 -1.31677909 -6.27195961 -1.98839299 0 0 Z M-8 7 C-9.485 9.475 -9.485 9.475 -11 12 C-9.68 13.32 -8.36 14.64 -7 16 C-5.35 15.01 -3.7 14.02 -2 13 C-2.33 11.35 -2.66 9.7 -3 8 C-4.65 7.67 -6.3 7.34 -8 7 Z " fill="#C31AF5" transform="translate(160,109)"/>
<path d="M0 0 C3.73929763 3.20511225 4.48465521 4.73427628 4.9375 9.625 C4.50589656 14.63159985 3.29012016 17.82275415 -0.5625 21.125 C-4.23789039 22.59515615 -7.50745103 22.9387416 -11.375 22.25 C-14.47852458 20.64076503 -16.59201424 19.24652733 -18.75 16.5 C-20.19899408 11.28362133 -20.07553657 7.60103481 -17.625 2.875 C-12.72832137 -2.83779173 -6.58393652 -3.41389301 0 0 Z M-9.375 6.25 C-10.035 6.91 -10.695 7.57 -11.375 8.25 C-11.05458603 10.85280568 -11.05458603 10.85280568 -10.375 13.25 C-7.97780568 13.92958603 -7.97780568 13.92958603 -5.375 14.25 C-4.715 13.59 -4.055 12.93 -3.375 12.25 C-3.69541397 9.64719432 -3.69541397 9.64719432 -4.375 7.25 C-6.77219432 6.57041397 -6.77219432 6.57041397 -9.375 6.25 Z " fill="#C730EE" transform="translate(181.375,89.75)"/>
<path d="M0 0 C3.75963624 2.94674192 5.06917489 6.14398497 5.75 10.8125 C5.04504746 15.64646028 2.72666691 18.55995216 -0.875 21.75 C-4.99050051 23.30474464 -8.49183445 23.08184085 -12.6875 21.8125 C-15.86531029 19.23052914 -18.37737052 17.02771055 -18.9609375 12.859375 C-19.14483995 8.70035037 -19.14522237 5.73335442 -16.5 2.375 C-10.97887657 -2.6553569 -6.82375744 -3.01514864 0 0 Z M-7.6875 5.8125 C-9.0075 7.1325 -10.3275 8.4525 -11.6875 9.8125 C-10.6975 11.4625 -9.7075 13.1125 -8.6875 14.8125 C-7.0375 14.4825 -5.3875 14.1525 -3.6875 13.8125 C-3.3575 12.1625 -3.0275 10.5125 -2.6875 8.8125 C-4.3375 7.8225 -5.9875 6.8325 -7.6875 5.8125 Z " fill="#C22FEF" transform="translate(160.6875,69.1875)"/>
<path d="M0 0 C3.06881816 1.71904752 5.40357084 3.80714167 7 7 C7.52137294 11.82911 7.73402673 15.74166846 5.25 20 C1.2057453 23.59489307 -1.48085142 24.42172496 -7.0390625 24.24609375 C-10.03580677 23.87000831 -11.71401456 22.95941609 -14 21 C-16.61525329 16.94184834 -17.70124748 13.80855413 -17 9 C-12.86938935 1.47638774 -8.62107629 -1.64068926 0 0 Z M-7 8 C-8.19838209 10.32854463 -8.19838209 10.32854463 -9 13 C-8.01 14.485 -8.01 14.485 -7 16 C-4.41619823 16.25030977 -4.41619823 16.25030977 -2 16 C-0.80161791 13.67145537 -0.80161791 13.67145537 0 11 C-0.66 10.01 -1.32 9.02 -2 8 C-4.58380177 7.74969023 -4.58380177 7.74969023 -7 8 Z " fill="#BD26F1" transform="translate(138,88)"/>
<path d="M0 0 C0.66 0 1.32 0 2 0 C3.78596189 2.67894284 4.39169178 4.0031669 5.0703125 7.01171875 C5.24433594 7.76904297 5.41835937 8.52636719 5.59765625 9.30664062 C5.85869141 10.48516602 5.85869141 10.48516602 6.125 11.6875 C6.30675781 12.48478516 6.48851562 13.28207031 6.67578125 14.10351562 C7.12273427 16.06775651 7.56210416 18.03372014 8 20 C8.33 20 8.66 20 9 20 C12.04161847 38.48700023 12.57587023 55.41693619 10 74 C8.515 74.495 8.515 74.495 7 75 C7 75.66 7 76.32 7 77 C5.02 77.495 5.02 77.495 3 78 C3 76.68 3 75.36 3 74 C3.66 74 4.32 74 5 74 C5.91839638 69.2478707 6.20661314 64.58387946 6.31640625 59.7578125 C6.33718735 58.98944061 6.35796844 58.22106873 6.37937927 57.42941284 C6.44433469 54.99469233 6.50350638 52.55987153 6.5625 50.125 C6.6057367 48.4661358 6.64935257 46.80728144 6.69335938 45.1484375 C6.79996003 41.09905896 6.9013767 37.04958037 7 33 C6.34 33 5.68 33 5 33 C4.94392578 32.07380859 4.94392578 32.07380859 4.88671875 31.12890625 C4.46709005 25.72310128 3.49240011 21.13305225 1.6328125 16.05078125 C0.79156215 13.32450697 0.78243154 10.82838994 1 8 C0.34 8 -0.32 8 -1 8 C-0.67 5.36 -0.34 2.72 0 0 Z " fill="#D903F9" transform="translate(198,87)"/>
<path d="M0 0 C1.3125 2.0625 1.3125 2.0625 2 4 C2.99 4.33 3.98 4.66 5 5 C5 5.66 5 6.32 5 7 C2.13280189 7.81919946 0.56672077 8.24401861 -2.22265625 7.04296875 C-9.81783801 4.19076969 -19.23718229 5.31866794 -26.59375 8.33203125 C-31.87506383 9.79811025 -37.56687455 9.20866911 -43 9 C-43 8.34 -43 7.68 -43 7 C-40.09451118 4.95830515 -38.59857954 4 -35 4 C-34.67 3.01 -34.34 2.02 -34 1 C-22.64021097 -1.57549873 -11.32421813 -4.1178975 0 0 Z " fill="#C21CF3" transform="translate(172,48)"/>
<path d="M0 0 C1.09570312 0.00902344 2.19140625 0.01804687 3.3203125 0.02734375 C4.16335937 0.03894531 5.00640625 0.05054687 5.875 0.0625 C6.205 1.0525 6.535 2.0425 6.875 3.0625 C7.535 3.0625 8.195 3.0625 8.875 3.0625 C8.875 5.7025 8.875 8.3425 8.875 11.0625 C12.175 11.0625 15.475 11.0625 18.875 11.0625 C18.875 12.7125 18.875 14.3625 18.875 16.0625 C19.535 16.0625 20.195 16.0625 20.875 16.0625 C20.875 20.6825 20.875 25.3025 20.875 30.0625 C18.895 31.0525 18.895 31.0525 16.875 32.0625 C16.215 32.7225 15.555 33.3825 14.875 34.0625 C11.181493 34.26396402 8.39559568 34.23603189 4.875 33.0625 C4.875 32.0725 4.875 31.0825 4.875 30.0625 C8.505 29.7325 12.135 29.4025 15.875 29.0625 C15.875 25.1025 15.875 21.1425 15.875 17.0625 C13.709375 17.0934375 13.709375 17.0934375 11.5 17.125 C7.125 17.1875 7.125 17.1875 4.875 16.0625 C4.27116453 12.41100439 4.12993084 8.75899725 3.875 5.0625 C-0.085 4.7325 -4.045 4.4025 -8.125 4.0625 C-8.125 3.0725 -8.125 2.0825 -8.125 1.0625 C-5.36047967 -0.31976016 -3.0788637 -0.03275387 0 0 Z " fill="#A001FB" transform="translate(70.125,76.9375)"/>
<path d="M0 0 C0.33 0 0.66 0 1 0 C1.33 1.98 1.66 3.96 2 6 C2.99 6 3.98 6 5 6 C4.98952637 6.81154541 4.97905273 7.62309082 4.96826172 8.45922852 C4.9265135 12.16028711 4.90061387 15.86129601 4.875 19.5625 C4.85824219 20.83931641 4.84148438 22.11613281 4.82421875 23.43164062 C4.79154227 29.7218634 4.8946095 35.06662677 7 41 C7.25588516 42.63911346 7.47251289 44.28555635 7.625 45.9375 C7.69976562 46.70964844 7.77453125 47.48179687 7.8515625 48.27734375 C7.90054687 48.84582031 7.94953125 49.41429687 8 50 C7.01 49.67 6.02 49.34 5 49 C5 48.01 5 47.02 5 46 C4.34 46 3.68 46 3 46 C2.505 44.515 2.505 44.515 2 43 C1.34 43 0.68 43 0 43 C-2.16794048 35.97139933 -2.30001579 29.38564536 -2.25 22.0625 C-2.25773438 20.93392578 -2.26546875 19.80535156 -2.2734375 18.64257812 C-2.25823915 12.11108772 -1.68703915 6.31300762 0 0 Z " fill="#8418EE" transform="translate(16,120)"/>
<path d="M0 0 C-3 2 -3 2 -6.125 2.5 C-7.07375 2.665 -8.0225 2.83 -9 3 C-9.33 3.66 -9.66 4.32 -10 5 C-8.88625 4.835 -7.7725 4.67 -6.625 4.5 C-1.74489662 3.87905495 3.08861948 3.90942126 8 4 C4.52068157 6.31954562 1.46570153 6.69535053 -2.5625 7.3125 C-11.19115645 8.7745887 -18.04239976 11.60942684 -25 17 C-25.99 14.36 -26.98 11.72 -28 9 C-18.93909882 2.43412958 -11.3652025 -2.19971661 0 0 Z " fill="#A721F1" transform="translate(103,139)"/>
<path d="M0 0 C7.96281757 13.95991866 6.26304615 37.920742 2.1484375 53.15234375 C-0.15329614 59.3745099 -3.12437823 64.10470383 -8.75 67.8125 C-14.3978325 69.87613111 -20.13890221 70.70160904 -26 69 C-26 68.67 -26 68.34 -26 68 C-25.27554688 67.95101562 -24.55109375 67.90203125 -23.8046875 67.8515625 C-16.21459233 67.29788834 -16.21459233 67.29788834 -9 65 C-8.67 64.34 -8.34 63.68 -8 63 C-7.01 63 -6.02 63 -5 63 C-5 61.35 -5 59.7 -5 58 C-5.598125 58.350625 -6.19625 58.70125 -6.8125 59.0625 C-9 60 -9 60 -12 59 C-10.07423885 56.56070254 -8.19909405 54.19909405 -6 52 C-5.67 52.99 -5.34 53.98 -5 55 C-4.01 55 -3.02 55 -2 55 C-2 54.34 -2 53.68 -2 53 C-1.01 52.505 -1.01 52.505 0 52 C0.49501808 49.45462924 0.85286337 47.00935916 1.125 44.4375 C1.2084668 43.67679199 1.29193359 42.91608398 1.37792969 42.13232422 C2.45987608 31.4475516 2.71351525 20.97629283 0.4453125 10.41796875 C-0.20339201 6.89561705 -0.13477472 3.57152996 0 0 Z " fill="#D450E7" transform="translate(207,109)"/>
<path d="M0 0 C0.495 0.99 0.495 0.99 1 2 C-0.98 2.99 -0.98 2.99 -3 4 C-2.67 4.99 -2.34 5.98 -2 7 C-2.61931396 6.99476318 -3.23862793 6.98952637 -3.87670898 6.98413086 C-6.73029533 6.96311927 -9.58386531 6.95026386 -12.4375 6.9375 C-13.41138672 6.92912109 -14.38527344 6.92074219 -15.38867188 6.91210938 C-21.34778969 6.89217922 -27.09067683 7.22390482 -33 8 C-32.1953125 6.046875 -32.1953125 6.046875 -31 4 C-27.875 3.25 -27.875 3.25 -25 3 C-25.66 2.34 -26.32 1.68 -27 1 C-22.1205263 -3.8794737 -6.39843524 -0.47749517 0 0 Z " fill="#AE1AF2" transform="translate(125,137)"/>
<path d="M0 0 C0.8723412 2.99480917 1.10829766 5.63575911 1.0625 8.75 C1.05347656 9.54921875 1.04445313 10.3484375 1.03515625 11.171875 C1.01775391 12.07679687 1.01775391 12.07679687 1 13 C2.32 12.67 3.64 12.34 5 12 C4.27018606 22.69753587 3.15921571 33.34196822 2 44 C1.67 44 1.34 44 1 44 C0.93941406 43.15695313 0.87882812 42.31390625 0.81640625 41.4453125 C0.73261719 40.34960938 0.64882813 39.25390625 0.5625 38.125 C0.48128906 37.03445312 0.40007813 35.94390625 0.31640625 34.8203125 C0.16998297 32.05271029 0.16998297 32.05271029 -1 30 C-1.66 30.66 -2.32 31.32 -3 32 C-5 30 -5 30 -5.24609375 27.015625 C-5.1041139 22.16569401 -4.06240713 17.4831244 -3.0625 12.75 C-2.88009766 11.8528125 -2.69769531 10.955625 -2.50976562 10.03125 C-1.8055834 6.61020473 -1.10568297 3.31704892 0 0 Z " fill="#9329F8" transform="translate(20,96)"/>
<path d="M0 0 C-0.33 0.99 -0.66 1.98 -1 3 C-2.1446875 3.2165625 -2.1446875 3.2165625 -3.3125 3.4375 C-6.08172908 3.9632594 -6.08172908 3.9632594 -9 5 C-9 5.66 -9 6.32 -9 7 C-5.7 7 -2.4 7 1 7 C-10.37234507 12.68617253 -22.61101162 12.37925475 -35 12 C-35 11.67 -35 11.34 -35 11 C-30.71 11 -26.42 11 -22 11 C-22 9.68 -22 8.36 -22 7 C-23.258125 7.061875 -24.51625 7.12375 -25.8125 7.1875 C-28.62065146 7.32560581 -29.59025178 7.35160213 -31.76171875 5.48828125 C-32.17035156 4.99714844 -32.57898438 4.50601563 -33 4 C-32.00742188 3.96261719 -31.01484375 3.92523438 -29.9921875 3.88671875 C-21.66625446 3.50634617 -13.9154641 2.57460529 -5.79296875 0.62109375 C-3 0 -3 0 0 0 Z " fill="#C041F0" transform="translate(138,50)"/>
<path d="M0 0 C0.33 0.66 0.66 1.32 1 2 C-2.63 2 -6.26 2 -10 2 C-11.19351312 5.34329469 -11.19351312 5.34329469 -12 9 C-10.42105792 11.36841312 -9.0245738 13.06745228 -7 15 C-5.35 14.34 -3.7 13.68 -2 13 C-2 13.99 -2 14.98 -2 16 C-5.22791555 18.1519437 -6.28400809 18.20086443 -10 18 C-10 17.01 -10 16.02 -10 15 C-11.65 14.67 -13.3 14.34 -15 14 C-13.76400948 17.70797156 -12.19004216 18.38797832 -8.8125 20.125 C-7.9153125 20.558125 -7.9153125 20.558125 -7 21 C-6.67 20.34 -6.34 19.68 -6 19 C-3.69 19.66 -1.38 20.32 1 21 C-1.85833286 23.85833286 -4.01515461 23.80075773 -8 24 C-12.64275364 22.36138107 -15.60444733 20.33042214 -18 16 C-18.78416684 11.14296664 -18.74662805 7.32733876 -16.3125 3 C-11.23409428 -1.39213468 -6.39352028 -1.63800933 0 0 Z " fill="#BD04F7" transform="translate(160,109)"/>
<path d="M0 0 C3 1 3 1 4.1875 2.9375 C5.68435342 8.57948598 5.56972974 13.87300898 4.0625 19.5 C1.02878523 23.17723003 -2.41199628 23.44212953 -7 24 C-7.2475 25.27875 -7.495 26.5575 -7.75 27.875 C-8.73724195 31.78254506 -8.73724195 31.78254506 -10.8125 33.5 C-13.27855943 34.06367073 -15.47838649 34.14008964 -18 34 C-18 33.01 -18 32.02 -18 31 C-17.01 30.34 -16.02 29.68 -15 29 C-14.42251197 27.03638136 -14.42251197 27.03638136 -14.3125 24.875 C-14.209375 23.59625 -14.10625 22.3175 -14 21 C-12.96939453 21.05220703 -12.96939453 21.05220703 -11.91796875 21.10546875 C-10.56638672 21.14607422 -10.56638672 21.14607422 -9.1875 21.1875 C-8.29417969 21.22230469 -7.40085937 21.25710937 -6.48046875 21.29296875 C-3.51889779 20.9431769 -2.95250396 20.13153011 -1 18 C-0.01 18 0.98 18 2 18 C2 13.38 2 8.76 2 4 C1.34 4 0.68 4 0 4 C0 2.68 0 1.36 0 0 Z " fill="#A015F5" transform="translate(89,89)"/>
<path d="M0 0 C0.77570332 3.79232732 0.97227079 6.30263221 0 10 C-0.25430993 12.51887932 -0.44017791 15.03737674 -0.62109375 17.5625 C-1.02074336 20.13344182 -1.607177 21.80925467 -3 24 C-3.99 24.66 -4.98 25.32 -6 26 C-6.66 25.67 -7.32 25.34 -8 25 C-8.32147805 16.76658986 -7.61773627 8.8532088 -5 1 C-2 0 -2 0 0 0 Z " fill="#8A1DF0" transform="translate(28,85)"/>
<path d="M0 0 C3.13180809 1.62390049 5.24339744 3.00266026 7.375 5.8125 C8.82722337 10.89528179 8.28248132 15.29238228 6 20 C5.67 20 5.34 20 5 20 C5.02320313 19.16855469 5.04640625 18.33710937 5.0703125 17.48046875 C5.08835938 16.39378906 5.10640625 15.30710937 5.125 14.1875 C5.14820313 13.10855469 5.17140625 12.02960938 5.1953125 10.91796875 C5.23023717 7.80597132 5.23023717 7.80597132 3 5 C0.94074861 4.27617533 0.94074861 4.27617533 -1 4 C-0.67 5.65 -0.34 7.3 0 9 C0.66 9 1.32 9 2 9 C2 11.97 2 14.94 2 18 C-0.64 17.67 -3.28 17.34 -6 17 C-5.360625 16.773125 -4.72125 16.54625 -4.0625 16.3125 C-1.72806339 15.14749104 -1.72806339 15.14749104 -1.25 12.375 C-1.1675 11.59125 -1.085 10.8075 -1 10 C-4.58327753 8.99782936 -4.58327753 8.99782936 -8 10 C-8 9.01 -8 8.02 -8 7 C-7.34 6.67 -6.68 6.34 -6 6 C-6.33 5.34 -6.66 4.68 -7 4 C-8.98 4 -10.96 4 -13 4 C-9.07416193 -0.10428525 -5.64409299 -0.76583418 0 0 Z " fill="#CC2DED" transform="translate(178,88)"/>
<path d="M0 0 C0.99 0 1.98 0 3 0 C3.20496094 0.99902344 3.40992188 1.99804688 3.62109375 3.02734375 C3.89050781 4.31769531 4.15992188 5.60804687 4.4375 6.9375 C4.70433594 8.22527344 4.97117188 9.51304688 5.24609375 10.83984375 C5.67181616 13.84638879 5.67181616 13.84638879 7 15 C7.07205511 16.68608966 7.08386068 18.37500659 7.0625 20.0625 C7.05347656 20.98160156 7.04445312 21.90070313 7.03515625 22.84765625 C7.02355469 23.55792969 7.01195312 24.26820312 7 25 C7.66 25 8.32 25 9 25 C9.04962457 29.87465957 9.08582554 34.74917041 9.10986328 39.62402344 C9.11988957 41.28062503 9.13351406 42.93720907 9.15087891 44.59375 C9.17527621 46.98181505 9.18651694 49.36964508 9.1953125 51.7578125 C9.20563507 52.49242706 9.21595764 53.22704163 9.22659302 53.98391724 C9.22754068 58.37696359 8.62276337 61.91782363 7 66 C6.34 66 5.68 66 5 66 C5.15597656 64.89785156 5.31195313 63.79570312 5.47265625 62.66015625 C7.98369551 43.71667368 5.53058206 27.16942809 1.53515625 8.56494141 C0.94188347 5.72145425 0.4364648 2.87173997 0 0 Z " fill="#DB54EC" transform="translate(196,95)"/>
<path d="M0 0 C6.47738527 2.32316115 12.09331503 6.28441837 16.0625 11.9375 C16.371875 12.618125 16.68125 13.29875 17 14 C16.01 14 15.02 14 14 14 C13.505 13.01 13.505 13.01 13 12 C12.01 12 11.02 12 10 12 C9.34 12.99 8.68 13.98 8 15 C7.53851563 14.60167969 7.07703125 14.20335937 6.6015625 13.79296875 C-2.62917799 6.29527243 -11.34903766 5.5069342 -23 6 C-19.23688303 3.49125535 -17.11237925 3.73236786 -12.625 3.75 C-11.31789062 3.74484375 -10.01078125 3.7396875 -8.6640625 3.734375 C-5.24634812 3.98214107 -3.07900462 4.61089312 0 6 C2.70886941 6.16798262 2.70886941 6.16798262 5 6 C5 5.34 5 4.68 5 4 C3.68 4 2.36 4 1 4 C0.67 2.68 0.34 1.36 0 0 Z " fill="#CA3BEC" transform="translate(172,49)"/>
<path d="M0 0 C0.33 0.66 0.66 1.32 1 2 C1.85464844 1.98839844 2.70929687 1.97679688 3.58984375 1.96484375 C4.69457031 1.95582031 5.79929687 1.94679688 6.9375 1.9375 C8.03964844 1.92589844 9.14179687 1.91429688 10.27734375 1.90234375 C13 2 13 2 14 3 C14.14310287 6.6691577 14.04221662 10.32715441 14 14 C19.445 14.495 19.445 14.495 25 15 C25 18.63 25 22.26 25 26 C24.67 26 24.34 26 24 26 C24 23.03 24 20.06 24 17 C22.576875 17.04125 21.15375 17.0825 19.6875 17.125 C16.01939967 17.23132175 15.20380017 17.13586678 12 15 C11.70703125 12.3984375 11.70703125 12.3984375 11.8125 9.375 C11.83957031 8.37210938 11.86664063 7.36921875 11.89453125 6.3359375 C11.92933594 5.56507812 11.96414062 4.79421875 12 4 C9.03 4 6.06 4 3 4 C3.03480469 4.77085938 3.06960937 5.54171875 3.10546875 6.3359375 C3.13253906 7.33882813 3.15960938 8.34171875 3.1875 9.375 C3.22230469 10.37273437 3.25710937 11.37046875 3.29296875 12.3984375 C3.19628906 13.25695312 3.09960938 14.11546875 3 15 C-0.31371 17.20914 -1.3446021 17.22481553 -5.1875 17.125 C-6.08855469 17.10695313 -6.98960938 17.08890625 -7.91796875 17.0703125 C-8.60503906 17.04710938 -9.29210938 17.02390625 -10 17 C-10 16.67 -10 16.34 -10 16 C-4.555 15.505 -4.555 15.505 1 15 C0.67 12.03 0.34 9.06 0 6 C-0.66 6 -1.32 6 -2 6 C-1.125 1.125 -1.125 1.125 0 0 Z " fill="#B762E6" transform="translate(61,79)"/>
<path d="M0 0 C-0.99 0.495 -0.99 0.495 -2 1 C-2 1.66 -2 2.32 -2 3 C-11.30184934 4.75717094 -20.6610389 4.26629981 -30 3 C-30 2.34 -30 1.68 -30 1 C-29.34 1 -28.68 1 -28 1 C-28 0.34 -28 -0.32 -28 -1 C-18.42479185 -2.70225923 -9.4424667 -2.29404831 0 0 Z " fill="#9304F6" transform="translate(82,50)"/>
<path d="M0 0 C0.33 0 0.66 0 1 0 C1.16435547 1.28583984 1.16435547 1.28583984 1.33203125 2.59765625 C2.55307004 13.51165899 2.55307004 13.51165899 8.5 22.3125 C10.32947797 23.54739763 12.16345525 24.77563683 14 26 C11.69 26.66 9.38 27.32 7 28 C8.32 28.99 9.64 29.98 11 31 C9.375 31.75 9.375 31.75 7 32 C1.72411304 29.41818298 -1.76821964 25.40734844 -4 20 C-3.505 18.515 -3.505 18.515 -3 17 C-2.67 18.32 -2.34 19.64 -2 21 C-1.34 21 -0.68 21 0 21 C0 21.99 0 22.98 0 24 C0.66 24 1.32 24 2 24 C1.57422194 19.9551084 1.14303631 16.43705539 -0.125 12.5625 C-1.21777067 8.11336227 -0.74992417 4.46914267 0 0 Z " fill="#9231EB" transform="translate(21,145)"/>
<path d="M0 0 C3.06881816 1.71904752 5.40357084 3.80714167 7 7 C7.12082534 8.66345582 7.1753794 10.33220591 7.1875 12 C7.20167969 12.886875 7.21585938 13.77375 7.23046875 14.6875 C7 17 7 17 5 19 C4.80083984 17.64455078 4.80083984 17.64455078 4.59765625 16.26171875 C4.42105469 15.08222656 4.24445313 13.90273437 4.0625 12.6875 C3.88847656 11.51574219 3.71445313 10.34398438 3.53515625 9.13671875 C3.07906969 5.98358597 3.07906969 5.98358597 2 3 C-2.29 3 -6.58 3 -11 3 C-11 3.99 -11 4.98 -11 6 C-11.66 6 -12.32 6 -13 6 C-13 7.32 -13 8.64 -13 10 C-13.66 10 -14.32 10 -15 10 C-14.67 12.97 -14.34 15.94 -14 19 C-16.1367793 16.68515576 -16.95843145 15.27316474 -17.4375 12.125 C-16.77651272 7.40366226 -14.43895614 4.59884015 -11.3125 1.125 C-7.59020323 -0.68584708 -4.04418256 -0.76965412 0 0 Z " fill="#C151E9" transform="translate(138,88)"/>
<path d="M0 0 C0.99 0.33 1.98 0.66 3 1 C4.53936228 5.61808684 4.64283645 10.1824211 4 15 C1.9375 17.25 1.9375 17.25 -1 18 C-4.75 17.8125 -4.75 17.8125 -8 17 C-8.33 16.34 -8.66 15.68 -9 15 C-8.34 14.34 -7.68 13.68 -7 13 C-7 12.67 -7 12.34 -7 12 C-5.35 12 -3.7 12 -2 12 C-2 11.34 -2 10.68 -2 10 C-1.34 10 -0.68 10 0 10 C-0.08378906 9.36191406 -0.16757813 8.72382812 -0.25390625 8.06640625 C-0.35574219 7.24011719 -0.45757812 6.41382812 -0.5625 5.5625 C-0.66691406 4.73878906 -0.77132812 3.91507812 -0.87890625 3.06640625 C-0.91886719 2.38449219 -0.95882812 1.70257813 -1 1 C-0.67 0.67 -0.34 0.34 0 0 Z " fill="#B819ED" transform="translate(139,93)"/>
<path d="M0 0 C0.99 0.33 1.98 0.66 3 1 C3.99 0.67 4.98 0.34 6 0 C8.53415636 -0.1214813 11.0286978 -0.18510284 13.5625 -0.1875 C14.24763672 -0.19974609 14.93277344 -0.21199219 15.63867188 -0.22460938 C17.42734112 -0.22987533 19.21548848 -0.12200021 21 0 C21.66 0.66 22.32 1.32 23 2 C22.67 2.66 22.34 3.32 22 4 C18.98046875 4.8515625 18.98046875 4.8515625 15.1875 5.625 C13.94355469 5.88539063 12.69960938 6.14578125 11.41796875 6.4140625 C8 7 8 7 4 7 C4 6.01 4 5.02 4 4 C2.68 3.34 1.36 2.68 0 2 C0 1.34 0 0.68 0 0 Z " fill="#860CF0" transform="translate(26,171)"/>
<path d="M0 0 C0 1.65 0 3.3 0 5 C-0.99 5 -1.98 5 -3 5 C-3.33 5.99 -3.66 6.98 -4 8 C-8.75218875 10.20223381 -12.87346957 10.25632652 -18 10 C-18.66 9.67 -19.32 9.34 -20 9 C-19.67 8.01 -19.34 7.02 -19 6 C-16.03 6 -13.06 6 -10 6 C-10 5.34 -10 4.68 -10 4 C-10.66 3.67 -11.32 3.34 -12 3 C-10.56445975 2.49440092 -9.1264798 1.9957251 -7.6875 1.5 C-6.88699219 1.2215625 -6.08648437 0.943125 -5.26171875 0.65625 C-3 0 -3 0 0 0 Z " fill="#D502FA" transform="translate(202,167)"/>
<path d="M0 0 C0 0.66 0 1.32 0 2 C-0.66 2 -1.32 2 -2 2 C-2 2.66 -2 3.32 -2 4 C-1.38511719 3.97679687 -0.77023438 3.95359375 -0.13671875 3.9296875 C0.67152344 3.91164062 1.47976562 3.89359375 2.3125 3.875 C3.11300781 3.85179687 3.91351563 3.82859375 4.73828125 3.8046875 C7 4 7 4 10 6 C-3.67346939 9.53624208 -3.67346939 9.53624208 -8 7 C-8.99 7 -9.98 7 -11 7 C-11 7.99 -11 8.98 -11 10 C-11.66 10 -12.32 10 -13 10 C-13 10.66 -13 11.32 -13 12 C-14.65 12.66 -16.3 13.32 -18 14 C-15.31504174 8.09309183 -6.95227998 0 0 0 Z " fill="#931DEC" transform="translate(54,49)"/>
<path d="M0 0 C0.33 0 0.66 0 1 0 C1 5.28 1 10.56 1 16 C-3 15 -3 15 -5 14 C-5.22511131 11.97399825 -5.4440878 9.94540724 -5.55859375 7.91015625 C-5.86342704 5.59575188 -5.86342704 5.59575188 -9 4 C-8.67 3.01 -8.34 2.02 -8 1 C-5.69 1.33 -3.38 1.66 -1 2 C-0.67 1.34 -0.34 0.68 0 0 Z " fill="#8B09EA" transform="translate(62,106)"/>
<path d="M0 0 C4.51045941 2.46025059 8.18504423 5.60282037 12 9 C11 10 10 11 9 12 C8.95936168 13.66617115 8.957279 15.33388095 9 17 C3.88276824 13.80173015 -0.52692892 10.04165813 -5 6 C-4.34 5.67 -3.68 5.34 -3 5 C-1.30485863 5.95093297 0.36368108 6.95107762 2 8 C2.33 8 2.66 8 3 8 C2.67 6.02 2.34 4.04 2 2 C1.34 2 0.68 2 0 2 C0 1.34 0 0.68 0 0 Z " fill="#C536EE" transform="translate(150,149)"/>
<path d="M0 0 C0.78246094 -0.01417969 1.56492187 -0.02835937 2.37109375 -0.04296875 C4.5625 0.1875 4.5625 0.1875 7.5625 2.1875 C6.5725 3.6725 6.5725 3.6725 5.5625 5.1875 C3.2525 4.8575 0.9425 4.5275 -1.4375 4.1875 C-1.4375 4.8475 -1.4375 5.5075 -1.4375 6.1875 C-0.4475 6.8475 0.5425 7.5075 1.5625 8.1875 C1.97093923 10.89953652 1.69586867 13.4312142 1.5625 16.1875 C1.2325 16.1875 0.9025 16.1875 0.5625 16.1875 C0.2325 13.8775 -0.0975 11.5675 -0.4375 9.1875 C-1.06398438 9.06632812 -1.69046875 8.94515625 -2.3359375 8.8203125 C-3.56183594 8.56894531 -3.56183594 8.56894531 -4.8125 8.3125 C-5.62460937 8.15007812 -6.43671875 7.98765625 -7.2734375 7.8203125 C-9.4375 7.1875 -9.4375 7.1875 -11.4375 5.1875 C-11.4375 4.1975 -11.4375 3.2075 -11.4375 2.1875 C-10.7775 2.1875 -10.1175 2.1875 -9.4375 2.1875 C-8.7775 2.8475 -8.1175 3.5075 -7.4375 4.1875 C-7.1075 3.1975 -6.7775 2.2075 -6.4375 1.1875 C-4.0978331 0.01766655 -2.60358473 0.0213759 0 0 Z " fill="#A141EA" transform="translate(55.4375,103.8125)"/>
<path d="M0 0 C2.0625 0.4375 2.0625 0.4375 4 1 C4 1.66 4 2.32 4 3 C4.78375 3.103125 5.5675 3.20625 6.375 3.3125 C9 4 9 4 11 7 C11.3125 10.0625 11.3125 10.0625 11 13 C10.01 13.66 9.02 14.32 8 15 C7.67 13.35 7.34 11.7 7 10 C6.05125 9.71125 5.1025 9.4225 4.125 9.125 C1 8 1 8 -1 6 C-1.1875 3.4375 -1.1875 3.4375 -1 1 C-0.67 0.67 -0.34 0.34 0 0 Z " fill="#D037EA" transform="translate(182,60)"/>
<path d="M0 0 C-0.33 0.99 -0.66 1.98 -1 3 C-1.763125 3.144375 -2.52625 3.28875 -3.3125 3.4375 C-6.08172908 3.9632594 -6.08172908 3.9632594 -9 5 C-9 5.66 -9 6.32 -9 7 C-5.7 7 -2.4 7 1 7 C-3.12973704 9.06486852 -5.11126099 9.29721646 -9.625 9.3125 C-11.34589844 9.33763672 -11.34589844 9.33763672 -13.1015625 9.36328125 C-14.53628906 9.18345703 -14.53628906 9.18345703 -16 9 C-16.66 8.01 -17.32 7.02 -18 6 C-17.67 5.01 -17.34 4.02 -17 3 C-13.9453125 2.05078125 -13.9453125 2.05078125 -10.125 1.3125 C-8.86945313 1.06113281 -7.61390625 0.80976562 -6.3203125 0.55078125 C-3 0 -3 0 0 0 Z " fill="#B52BE7" transform="translate(138,50)"/>
<path d="M0 0 C1.32 0 2.64 0 4 0 C5.75 2 5.75 2 7 4 C5.35 4.33 3.7 4.66 2 5 C1.67 9.62 1.34 14.24 1 19 C0.01 18.67 -0.98 18.34 -2 18 C-2 17.34 -2 16.68 -2 16 C-2.66 16 -3.32 16 -4 16 C-4 12.7 -4 9.4 -4 6 C-3.34 6 -2.68 6 -2 6 C-1.34 4.02 -0.68 2.04 0 0 Z " fill="#8B03F6" transform="translate(48,90)"/>
<path d="M0 0 C3.05561782 1.05366132 3.98224736 1.97210299 5.75 4.75 C7.10108566 8.26282272 7.54213837 10.28247975 7 14 C4.73146478 18.28501096 2.59514904 21.26405481 -2 23 C-5.98878711 23.10552347 -9.68093183 23.15636373 -12.7734375 20.4453125 C-13.17820313 19.96835938 -13.58296875 19.49140625 -14 19 C-13.24074219 19.0721875 -12.48148438 19.144375 -11.69921875 19.21875 C-10.20841797 19.35796875 -10.20841797 19.35796875 -8.6875 19.5 C-7.20830078 19.63921875 -7.20830078 19.63921875 -5.69921875 19.78125 C-2.95297861 20.04038857 -2.95297861 20.04038857 0 20 C0 19.34 0 18.68 0 18 C0.99 18 1.98 18 3 18 C2.79375 17.401875 2.5875 16.80375 2.375 16.1875 C2 14 2 14 4 11 C4.16713569 8.37468476 4.16713569 8.37468476 4 6 C3.34 6 2.68 6 2 6 C2 4.68 2 3.36 2 2 C1.34 2 0.68 2 0 2 C0 1.34 0 0.68 0 0 Z " fill="#C84BE8" transform="translate(159,69)"/>
<path d="M0 0 C0 0.33 0 0.66 0 1 C-6.50153578 1.20763388 -12.07365322 0.52406166 -18.375 -1 C-26.16618878 -2.76299742 -33.74715429 -4.27084977 -41.6640625 -2.35546875 C-42.82035156 -2.17951172 -42.82035156 -2.17951172 -44 -2 C-44.66 -2.66 -45.32 -3.32 -46 -4 C-30.41192722 -8.25769031 -15.29861922 -3.55850236 0 0 Z " fill="#AF59E1" transform="translate(100,52)"/>
<path d="M0 0 C1.32 1.32 2.64 2.64 4 4 C3.34 5.98 2.68 7.96 2 10 C-0.31 9.34 -2.62 8.68 -5 8 C-5.33 8.99 -5.66 9.98 -6 11 C-9.32310483 9.83242263 -11.83361132 8.85051143 -14 6 C-14 5.01 -14 4.02 -14 3 C-11.525 3.495 -11.525 3.495 -9 4 C-9 4.99 -9 5.98 -9 7 C-6.36 6.34 -3.72 5.68 -1 5 C-0.67 3.35 -0.34 1.7 0 0 Z " fill="#C302FA" transform="translate(159,120)"/>
<path d="M0 0 C1.6744239 0.6469365 3.34302621 1.30959426 5 2 C5 2.66 5 3.32 5 4 C5.66 4 6.32 4 7 4 C8.42944945 6.35438733 9.08661261 7.48032433 8.625 10.25 C8.41875 10.8275 8.2125 11.405 8 12 C7.649375 11.566875 7.29875 11.13375 6.9375 10.6875 C4.92679163 8.7573549 4.92679163 8.7573549 1.5625 7.5625 C-1.85375867 6.06414093 -3.68327306 4.8727414 -6 2 C-6 1.34 -6 0.68 -6 0 C-3.43417606 -1.28291197 -2.6963913 -0.84743727 0 0 Z " fill="#BB0CF3" transform="translate(145,147)"/>
<path d="M0 0 C-0.72981394 10.69753587 -1.84078429 21.34196822 -3 32 C-3.33 32 -3.66 32 -4 32 C-5.09945892 21.98707052 -5.10055982 12.05598201 -5 2 C-1.125 0 -1.125 0 0 0 Z " fill="#9840ED" transform="translate(25,108)"/>
<path d="M0 0 C0.69802734 -0.00386719 1.39605469 -0.00773437 2.11523438 -0.01171875 C7.31086006 -0.00163994 7.31086006 -0.00163994 8.4375 1.125 C10.45344582 1.35927778 12.475974 1.53836124 14.5 1.6875 C15.60472656 1.77128906 16.70945312 1.85507812 17.84765625 1.94140625 C18.70230469 2.00199219 19.55695313 2.06257813 20.4375 2.125 C20.4375 2.455 20.4375 2.785 20.4375 3.125 C18.33340361 3.15201408 16.22920822 3.17140223 14.125 3.1875 C12.95324219 3.19910156 11.78148437 3.21070313 10.57421875 3.22265625 C7.4375 3.125 7.4375 3.125 4.4375 2.125 C4.4375 2.785 4.4375 3.445 4.4375 4.125 C1.33701072 5.67524464 -1.14144218 5.41492015 -4.5625 5.125 C-7.5 3.125 -7.5 3.125 -9.5625 1.125 C-6.51267742 -0.39991129 -3.34127461 -0.01861434 0 0 Z " fill="#A211EF" transform="translate(96.5625,52.875)"/>
<path d="M0 0 C2 1.25 2 1.25 4 3 C4 4.32 4 5.64 4 7 C4.66 7 5.32 7 6 7 C5.54857225 8.77260631 5.08859477 10.5430368 4.625 12.3125 C4.36976562 13.29863281 4.11453125 14.28476563 3.8515625 15.30078125 C3 18 3 18 1 21 C0.04414716 17.2827945 0.09604295 14.71626787 1 11 C1 10.34 1 9.68 1 9 C-0.32 9.33 -1.64 9.66 -3 10 C-2.39009109 6.44219804 -1.4216319 3.3171411 0 0 Z " fill="#992CF3" transform="translate(27,76)"/>
<path d="M0 0 C0.99 0 1.98 0 3 0 C3 0.66 3 1.32 3 2 C0.75780942 3.59464836 -1.45396558 5.03334796 -3.8125 6.4375 C-4.49304443 6.84347412 -5.17358887 7.24944824 -5.87475586 7.66772461 C-13.10647277 11.84127391 -20.50460909 14.68881548 -29 14 C-29 13.34 -29 12.68 -29 12 C-27.27192682 11.66104344 -25.54248026 11.32908475 -23.8125 11 C-22.84957031 10.814375 -21.88664062 10.62875 -20.89453125 10.4375 C-18.2065794 10.03122388 -15.71228981 9.92066428 -13 10 C-13 9.34 -13 8.68 -13 8 C-11.68 7.34 -10.36 6.68 -9 6 C-9 5.34 -9 4.68 -9 4 C-7.02 4 -5.04 4 -3 4 C-3 3.34 -3 2.68 -3 2 C-2.01 2 -1.02 2 0 2 C0 1.34 0 0.68 0 0 Z " fill="#A347E6" transform="translate(63,165)"/>
<path d="M0 0 C0.66 0 1.32 0 2 0 C2 0.66 2 1.32 2 2 C2.66 2 3.32 2 4 2 C4 3.32 4 4.64 4 6 C4.66 6 5.32 6 6 6 C7.17015161 10.09553065 6.76143048 12.16629838 5 16 C5 16.66 5 17.32 5 18 C4.01 17.67 3.02 17.34 2 17 C2 14.69 2 12.38 2 10 C2.66 10 3.32 10 4 10 C4 9.34 4 8.68 4 8 C0.7 7.34 -2.6 6.68 -6 6 C-6 5.67 -6 5.34 -6 5 C-4.35 5 -2.7 5 -1 5 C-0.67 3.35 -0.34 1.7 0 0 Z " fill="#C702FB" transform="translate(157,69)"/>
<path d="M0 0 C4.03852447 3.120678 4.66570798 7.61057178 5.34375 12.45703125 C5.59087506 14.63653697 5.81169745 16.81469938 6 19 C5.01 18.67 4.02 18.34 3 18 C3 17.01 3 16.02 3 15 C2.34 15 1.68 15 1 15 C-1.26166232 11.60750652 -1.24515545 10.34798499 -1.1875 6.375 C-1.18105469 5.39273438 -1.17460937 4.41046875 -1.16796875 3.3984375 C-1 1 -1 1 0 0 Z " fill="#8002F9" transform="translate(18,151)"/>
<path d="M0 0 C0.66 0.33 1.32 0.66 2 1 C2 8.92 2 16.84 2 25 C1.34 24.67 0.68 24.34 0 24 C-0.39310414 21.67711188 -0.50749695 19.38154824 -0.65625 17.03125 C-0.82640625 16.02578125 -0.82640625 16.02578125 -1 15 C-1.66 14.67 -2.32 14.34 -3 14 C-2.88570603 12.22844346 -2.75816963 10.45773771 -2.625 8.6875 C-2.55539063 7.70136719 -2.48578125 6.71523437 -2.4140625 5.69921875 C-2 3 -2 3 0 0 Z " fill="#7908E8" transform="translate(19,125)"/>
<path d="M0 0 C0.33 0 0.66 0 1 0 C1.33 3.63 1.66 7.26 2 11 C-1.2830098 12.6415049 -4.42545033 11.51888624 -8 11 C-8.66 12.98 -9.32 14.96 -10 17 C-10.33 17 -10.66 17 -11 17 C-11.33 19.64 -11.66 22.28 -12 25 C-12.33 25 -12.66 25 -13 25 C-13.58956456 13.95112352 -13.58956456 13.95112352 -10 9 C-6.66716197 7.11993752 -4.9025505 7 -1 7 C-0.67 4.69 -0.34 2.38 0 0 Z " fill="#B04FF3" transform="translate(56,80)"/>
<path d="M0 0 C3 1 3 1 4.1875 2.9375 C5.70459278 8.65577278 5.7117656 13.97146804 3.75 19.5625 C2 22 2 22 -0.1875 22.875 C-0.785625 22.91625 -1.38375 22.9575 -2 23 C-1.34 21.68 -0.68 20.36 0 19 C0.66 19 1.32 19 2 19 C2 14.05 2 9.1 2 4 C1.34 4 0.68 4 0 4 C0 2.68 0 1.36 0 0 Z " fill="#B251E4" transform="translate(89,89)"/>
<path d="M0 0 C0.33 0.66 0.66 1.32 1 2 C3.58605332 2.4683265 3.58605332 2.4683265 6.5625 2.625 C8.08037109 2.73714844 8.08037109 2.73714844 9.62890625 2.8515625 C10.80259766 2.92503906 10.80259766 2.92503906 12 3 C12 3.33 12 3.66 12 4 C9.03 4 6.06 4 3 4 C3.03480469 4.77085938 3.06960937 5.54171875 3.10546875 6.3359375 C3.13253906 7.33882813 3.15960938 8.34171875 3.1875 9.375 C3.22230469 10.37273437 3.25710937 11.37046875 3.29296875 12.3984375 C3.19628906 13.25695312 3.09960938 14.11546875 3 15 C-0.31371 17.20914 -1.3446021 17.22481553 -5.1875 17.125 C-6.08855469 17.10695313 -6.98960938 17.08890625 -7.91796875 17.0703125 C-8.60503906 17.04710938 -9.29210938 17.02390625 -10 17 C-10 16.67 -10 16.34 -10 16 C-4.555 15.505 -4.555 15.505 1 15 C0.67 12.03 0.34 9.06 0 6 C-0.66 6 -1.32 6 -2 6 C-1.125 1.125 -1.125 1.125 0 0 Z " fill="#B759F1" transform="translate(61,79)"/>
<path d="M0 0 C2.375 0.3125 2.375 0.3125 5 1 C7.42945561 4.64418341 7.0828781 5.92923364 6.625 10.1875 C6.51414063 11.27417969 6.40328125 12.36085938 6.2890625 13.48046875 C6.19367188 14.31191406 6.09828125 15.14335938 6 16 C5.67 15.34 5.34 14.68 5 14 C4.34 14 3.68 14 3 14 C3 11.03 3 8.06 3 5 C2.34 5 1.68 5 1 5 C0.67 3.35 0.34 1.7 0 0 Z " fill="#CF03F9" transform="translate(177,92)"/>
<path d="M0 0 C-3.48689145 2.3245943 -6.58621852 2.73849323 -10.625 3.375 C-16.95335466 4.4513624 -22.25615361 6.02550812 -28 9 C-27.67 7.02 -27.34 5.04 -27 3 C-26.13375 3.04125 -25.2675 3.0825 -24.375 3.125 C-20.84133629 2.99412357 -18.30733791 2.19627116 -15 1 C-10.06865471 -0.36981814 -5.07498448 -0.08868905 0 0 Z " fill="#AE40E4" transform="translate(111,143)"/>
<path d="M0 0 C0.99 0.33 1.98 0.66 3 1 C2.95875 2.051875 2.9175 3.10375 2.875 4.1875 C2.99147875 7.74010173 3.47208068 9.84866641 5 13 C4.67 13.33 4.34 13.66 4 14 C2.35 14 0.7 14 -1 14 C-1.33 10.7 -1.66 7.4 -2 4 C-1.34 4 -0.68 4 0 4 C0 2.68 0 1.36 0 0 Z " fill="#B504F9" transform="translate(125,94)"/>
<path d="M0 0 C-1.35656836 5.54959786 -1.35656836 5.54959786 -4.5 7.75 C-5.7375 8.36875 -5.7375 8.36875 -7 9 C-7.66 9.66 -8.32 10.32 -9 11 C-9.625 8.625 -9.625 8.625 -10 6 C-8 4 -8 4 -6 3 C-7.65 2.67 -9.3 2.34 -11 2 C-7.39759636 -1.60240364 -4.69302684 -0.93860537 0 0 Z " fill="#CA3CF6" transform="translate(158,68)"/>
<path d="M0 0 C0.66 0 1.32 0 2 0 C2.33 4.29 2.66 8.58 3 13 C2.34 13 1.68 13 1 13 C0.34 13.66 -0.32 14.32 -1 15 C-1.66 14.67 -2.32 14.34 -3 14 C-2.58846263 9.02906176 -2.20399168 4.55491614 0 0 Z " fill="#830AF8" transform="translate(23,96)"/>
<path d="M0 0 C1.60332791 -0.08121924 3.20784026 -0.13929134 4.8125 -0.1875 C6.15248047 -0.23970703 6.15248047 -0.23970703 7.51953125 -0.29296875 C10.46433437 0.05484264 11.13954408 0.78197898 13 3 C13.66 3.33 14.32 3.66 15 4 C15 4.66 15 5.32 15 6 C12.38873734 6.9792235 10.60791177 7.21387336 7.95703125 6.28125 C4.25137213 4.4992937 2.3388274 3.5082411 0 0 Z " fill="#CA04F9" transform="translate(162,49)"/>
<path d="M0 0 C1.22589844 0.15275391 1.22589844 0.15275391 2.4765625 0.30859375 C3.41628906 0.43427734 3.41628906 0.43427734 4.375 0.5625 C4.705 1.8825 5.035 3.2025 5.375 4.5625 C-3.19642857 5.99107143 -3.19642857 5.99107143 -6.625 3.5625 C-6.625 2.5725 -6.625 1.5825 -6.625 0.5625 C-4.10446405 -0.69776798 -2.7707902 -0.35624445 0 0 Z " fill="#CB04F6" transform="translate(174.625,104.4375)"/>
<path d="M0 0 C0.33 0.66 0.66 1.32 1 2 C0.22914063 1.96519531 -0.54171875 1.93039063 -1.3359375 1.89453125 C-2.84027344 1.85392578 -2.84027344 1.85392578 -4.375 1.8125 C-5.37273437 1.77769531 -6.37046875 1.74289063 -7.3984375 1.70703125 C-8.68621094 1.85205078 -8.68621094 1.85205078 -10 2 C-10.99 3.485 -10.99 3.485 -12 5 C-12.99 5 -13.98 5 -15 5 C-15 5.66 -15 6.32 -15 7 C-15.66 7 -16.32 7 -17 7 C-16.79375 8.11375 -16.5875 9.2275 -16.375 10.375 C-16.25125 11.57125 -16.1275 12.7675 -16 14 C-16.66 14.66 -17.32 15.32 -18 16 C-18.62176166 7.10535406 -18.62176166 7.10535406 -16.3125 3 C-11.23409428 -1.39213468 -6.39352028 -1.63800933 0 0 Z " fill="#C85BE7" transform="translate(160,109)"/>
<path d="M0 0 C0.33 0 0.66 0 1 0 C1.05826088 4.3749437 1.09368457 8.74978698 1.125 13.125 C1.14175781 14.3625 1.15851563 15.6 1.17578125 16.875 C1.18222656 18.07382813 1.18867188 19.27265625 1.1953125 20.5078125 C1.20578613 21.60754395 1.21625977 22.70727539 1.22705078 23.84033203 C0.98673701 27.18456942 0.18909337 29.87708695 -1 33 C-1.66 33 -2.32 33 -3 33 C-2.86722656 31.87464844 -2.73445312 30.74929687 -2.59765625 29.58984375 C-1.45645865 19.7332618 -0.55529842 9.90769284 0 0 Z " fill="#D044E4" transform="translate(204,128)"/>
<path d="M0 0 C0.33 0 0.66 0 1 0 C1.02688151 1.64574566 1.04634123 3.29161413 1.0625 4.9375 C1.07410156 5.85402344 1.08570312 6.77054687 1.09765625 7.71484375 C1 10 1 10 0 11 C-3.6691577 11.14310287 -7.32715441 11.04221662 -11 11 C-11 14.63 -11 18.26 -11 22 C-11.33 22 -11.66 22 -12 22 C-12 17.71 -12 13.42 -12 9 C-4.5 7.875 -4.5 7.875 0 9 C0 6.03 0 3.06 0 0 Z " fill="#9B32DE" transform="translate(86,96)"/>
<path d="M0 0 C4.10958767 1.45044271 7.43258745 3.51110752 11 6 C10.34 6.66 9.68 7.32 9 8 C9 7.34 9 6.68 9 6 C6.03 5.67 3.06 5.34 0 5 C0 5.66 0 6.32 0 7 C1.32 7.66 2.64 8.32 4 9 C3.01 9.495 3.01 9.495 2 10 C0.0546875 9.22265625 0.0546875 9.22265625 -2.125 8.0625 C-2.84945312 7.68222656 -3.57390625 7.30195313 -4.3203125 6.91015625 C-4.87460938 6.60980469 -5.42890625 6.30945313 -6 6 C-6 5.67 -6 5.34 -6 5 C-2.535 4.505 -2.535 4.505 1 4 C0.67 2.68 0.34 1.36 0 0 Z " fill="#C547EC" transform="translate(139,142)"/>
<path d="M0 0 C1.98 0.66 3.96 1.32 6 2 C6 2.66 6 3.32 6 4 C7.32 4.33 8.64 4.66 10 5 C10.33 4.34 10.66 3.68 11 3 C13.31 3.66 15.62 4.32 18 5 C15.14166714 7.85833286 12.98484539 7.80075773 9 8 C5.39043448 6.61170557 2.41055774 5.08015711 0 2 C0 1.34 0 0.68 0 0 Z " fill="#C441EC" transform="translate(143,125)"/>
<path d="M0 0 C2.99693138 0.99897713 4.02709413 1.65130253 6 4 C6 4.66 6 5.32 6 6 C6.99 6.33 7.98 6.66 9 7 C7.68 7.33 6.36 7.66 5 8 C5 8.66 5 9.32 5 10 C3.35 9.67 1.7 9.34 0 9 C-1.125 2.25 -1.125 2.25 0 0 Z " fill="#C116F0" transform="translate(159,158)"/>
<path d="M0 0 C3.875 3.75 3.875 3.75 5 6 C5.04351484 10.50813764 4.80639538 13.99811483 1.9375 17.5625 C1.298125 18.036875 0.65875 18.51125 0 19 C0.24556641 18.17242187 0.24556641 18.17242187 0.49609375 17.328125 C1.05760414 14.73385993 1.09739008 12.40164589 1.0625 9.75 C1.05347656 8.85796875 1.04445312 7.9659375 1.03515625 7.046875 C1.02355469 6.37140625 1.01195312 5.6959375 1 5 C0.67 5 0.34 5 0 5 C0 3.35 0 1.7 0 0 Z " fill="#C74EE8" transform="translate(161,111)"/>
<path d="M0 0 C0.33 0.99 0.66 1.98 1 3 C0.01 3.33 -0.98 3.66 -2 4 C-2.33 5.98 -2.66 7.96 -3 10 C-3.66 9.67 -4.32 9.34 -5 9 C-5 8.34 -5 7.68 -5 7 C-5.66 7 -6.32 7 -7 7 C-7 5.02 -7 3.04 -7 1 C-4.53721199 -0.231394 -2.7204945 -0.07159196 0 0 Z " fill="#C105F3" transform="translate(172,91)"/>
<path d="M0 0 C0.90105469 0.01804688 1.80210938 0.03609375 2.73046875 0.0546875 C3.41753906 0.07789063 4.10460937 0.10109375 4.8125 0.125 C4.8125 1.445 4.8125 2.765 4.8125 4.125 C0.1925 4.125 -4.4275 4.125 -9.1875 4.125 C-7.10117989 -0.04764022 -4.20386989 -0.10919143 0 0 Z " fill="#A905F4" transform="translate(111.1875,56.875)"/>
<path d="M0 0 C2.31 0.33 4.62 0.66 7 1 C8.25541557 4.76624671 7.37061958 6.37188934 6 10 C5.67 10 5.34 10 5 10 C5 8.35 5 6.7 5 5 C3.35 4.67 1.7 4.34 0 4 C0 2.68 0 1.36 0 0 Z " fill="#9502FA" transform="translate(54,107)"/>
<path d="M0 0 C2.25807991 1.60250832 3.46673916 3.02506927 4.9375 5.375 C5.30078125 7.8828125 5.30078125 7.8828125 5.25 10.5 C5.24613281 11.36882812 5.24226562 12.23765625 5.23828125 13.1328125 C4.9375 15.375 4.9375 15.375 2.9375 17.375 C2.80472656 16.47136719 2.67195312 15.56773438 2.53515625 14.63671875 C2.35855469 13.45722656 2.18195313 12.27773437 2 11.0625 C1.82597656 9.89074219 1.65195313 8.71898438 1.47265625 7.51171875 C1.01656969 4.35858597 1.01656969 4.35858597 -0.0625 1.375 C-2.0425 1.375 -4.0225 1.375 -6.0625 1.375 C-2.66661899 -0.80806636 -2.66661899 -0.80806636 0 0 Z " fill="#BD46E5" transform="translate(140.0625,89.625)"/>
<path d="M0 0 C1.11375 0.1546875 1.11375 0.1546875 2.25 0.3125 C0.89199529 3.27780497 -0.67428263 5.60381271 -2.8125 8.0625 C-3.60333984 8.98289062 -3.60333984 8.98289062 -4.41015625 9.921875 C-4.85230469 10.38078125 -5.29445312 10.8396875 -5.75 11.3125 C-6.08 11.3125 -6.41 11.3125 -6.75 11.3125 C-7.09718988 7.58020881 -6.98503152 5.71292406 -5.0625 2.4375 C-2.75 0.3125 -2.75 0.3125 0 0 Z " fill="#9B37EC" transform="translate(45.75,59.6875)"/>
<path d="M0 0 C0.66 0.99 1.32 1.98 2 3 C-1 5 -1 5 -3.6875 4.625 C-4.450625 4.41875 -5.21375 4.2125 -6 4 C-6.33 4.99 -6.66 5.98 -7 7 C-7.99 6.67 -8.98 6.34 -10 6 C-9.34 5.67 -8.68 5.34 -8 5 C-8 4.34 -8 3.68 -8 3 C-7.34 3 -6.68 3 -6 3 C-6 2.01 -6 1.02 -6 0 C-3 -1 -3 -1 0 0 Z " fill="#930FF7" transform="translate(49,56)"/>
<path d="M0 0 C0.99 0 1.98 0 3 0 C2 3 2 3 -0.5 4.625 C-6.21202769 6.86901088 -12.01266141 7.73825959 -18 6 C-18 5.67 -18 5.34 -18 5 C-16.91332031 4.92652344 -16.91332031 4.92652344 -15.8046875 4.8515625 C-8.21459233 4.29788834 -8.21459233 4.29788834 -1 2 C-0.67 1.34 -0.34 0.68 0 0 Z " fill="#D44FE8" transform="translate(199,172)"/>
<path d="M0 0 C0.99 0.33 1.98 0.66 3 1 C4.1577506 4.47325181 4.06866652 7.36067448 4 11 C2.68 11 1.36 11 0 11 C-0.19406478 9.35492782 -0.38007935 7.70890406 -0.5625 6.0625 C-0.66691406 5.14597656 -0.77132812 4.22945313 -0.87890625 3.28515625 C-0.91886719 2.53105469 -0.95882812 1.77695313 -1 1 C-0.67 0.67 -0.34 0.34 0 0 Z " fill="#BF01FB" transform="translate(139,93)"/>
<path d="M0 0 C0.66 0 1.32 0 2 0 C2 1.65 2 3.3 2 5 C2.66 5 3.32 5 4 5 C3.67 10.28 3.34 15.56 3 21 C2.67 21 2.34 21 2 21 C1.34 14.07 0.68 7.14 0 0 Z " fill="#DA58ED" transform="translate(201,115)"/>
<path d="M0 0 C4.75 0.875 4.75 0.875 7 2 C7 2.66 7 3.32 7 4 C6.34 4 5.68 4 5 4 C5.185625 5.27875 5.37125 6.5575 5.5625 7.875 C6.125 11.75 6.125 11.75 5 14 C4.01 14 3.02 14 2 14 C1.92875826 10.93660538 1.92508038 8.29286759 2.6875 5.3125 C2.790625 4.549375 2.89375 3.78625 3 3 C1.66621425 1.1645201 1.66621425 1.1645201 0 0 Z " fill="#CB2FF4" transform="translate(154,75)"/>
<path d="M0 0 C0 1.65 0 3.3 0 5 C-0.99 5 -1.98 5 -3 5 C-3.33 5.66 -3.66 6.32 -4 7 C-4.66 6.67 -5.32 6.34 -6 6 C-6 5.34 -6 4.68 -6 4 C-7.98 4 -9.96 4 -12 4 C-8.14070855 1.42713903 -4.66785662 0 0 0 Z " fill="#DB1BF7" transform="translate(202,167)"/>
<path d="M0 0 C0.66 0.33 1.32 0.66 2 1 C0.04697411 4.5154466 -1.82968374 7.48239591 -5 10 C-7.75 10.25 -7.75 10.25 -10 10 C-6.66666667 6.66666667 -3.33333333 3.33333333 0 0 Z " fill="#A83FE9" transform="translate(73,149)"/>
<path d="M0 0 C0.66 0 1.32 0 2 0 C1 3 1 3 -1 4 C-3.55157655 4.0716735 -6.07472971 4.09308442 -8.625 4.0625 C-9.33140625 4.05798828 -10.0378125 4.05347656 -10.765625 4.04882812 C-12.51045275 4.03703875 -14.255237 4.01910324 -16 4 C-16 3.34 -16 2.68 -16 2 C-14.92878906 1.93941406 -13.85757813 1.87882812 -12.75390625 1.81640625 C-11.35675609 1.73201463 -9.95962143 1.64736594 -8.5625 1.5625 C-7.50192383 1.50352539 -7.50192383 1.50352539 -6.41992188 1.44335938 C-2.91309581 1.52375562 -2.91309581 1.52375562 0 0 Z " fill="#A94EE4" transform="translate(77,121)"/>
<path d="M0 0 C0 1.98 0 3.96 0 6 C-2.31 5.67 -4.62 5.34 -7 5 C-7.33 3.68 -7.66 2.36 -8 1 C-1.125 0 -1.125 0 0 0 Z " fill="#BA09EE" transform="translate(156,84)"/>
<path d="M0 0 C2.625 0.9375 2.625 0.9375 5 2 C5.33 1.34 5.66 0.68 6 0 C6 2.97 6 5.94 6 9 C5.01 8.01 4.02 7.02 3 6 C2.01 6.495 2.01 6.495 1 7 C0.87625 6.195625 0.7525 5.39125 0.625 4.5625 C0.315625 3.2940625 0.315625 3.2940625 0 2 C-0.66 1.67 -1.32 1.34 -2 1 C-1.34 0.67 -0.68 0.34 0 0 Z " fill="#CA1DF9" transform="translate(157,115)"/>
<path d="M0 0 C2.31 0.33 4.62 0.66 7 1 C6.67 2.65 6.34 4.3 6 6 C3.625 6.1875 3.625 6.1875 1 6 C0.34 5.01 -0.32 4.02 -1 3 C-0.67 2.01 -0.34 1.02 0 0 Z " fill="#BB18FA" transform="translate(121,53)"/>
<path d="M0 0 C2.94403948 2.81603776 3.94926897 4.10375174 4.1875 8.3125 C4.01221283 11.75981429 3.48837378 13.93022908 2 17 C1.67 17 1.34 17 1 17 C1.01740234 15.78763672 1.01740234 15.78763672 1.03515625 14.55078125 C1.04417969 13.48214844 1.05320313 12.41351563 1.0625 11.3125 C1.07410156 10.25675781 1.08570313 9.20101562 1.09765625 8.11328125 C1.00865425 5.27589738 0.64939838 2.7561081 0 0 Z " fill="#D157E7" transform="translate(182,91)"/>
<path d="M0 0 C2.97 0 5.94 0 9 0 C9 1.32 9 2.64 9 4 C5.94736336 4.98120464 4.05263664 4.98120464 1 4 C0.67 2.68 0.34 1.36 0 0 Z " fill="#A217F3" transform="translate(80,88)"/>
<path d="M0 0 C6.14154225 0.58490879 12.00679849 1.54066252 18 3 C18 3.33 18 3.66 18 4 C11.64012196 4.20190089 6.14778871 3.6277833 0 2 C0 1.34 0 0.68 0 0 Z " fill="#BB60E9" transform="translate(82,49)"/>
<path d="M0 0 C-0.99 0.66 -1.98 1.32 -3 2 C-2.67 2.66 -2.34 3.32 -2 4 C-4.64 4.33 -7.28 4.66 -10 5 C-10 4.01 -10 3.02 -10 2 C-6.5980513 -0.09350689 -3.94727588 -0.17942163 0 0 Z " fill="#C01EFC" transform="translate(132,138)"/>
<path d="M0 0 C1.051875 -0.02126953 1.051875 -0.02126953 2.125 -0.04296875 C4 0.1875 4 0.1875 6 2.1875 C1.05 2.8475 -3.9 3.5075 -9 4.1875 C-5.66072082 0.84822082 -4.50824577 0.04143608 0 0 Z " fill="#D04BEB" transform="translate(174,87.8125)"/>
<path d="M0 0 C1.65 0.33 3.3 0.66 5 1 C4.071875 1.7734375 4.071875 1.7734375 3.125 2.5625 C0.52523258 5.54458615 -0.11949123 8.18446201 -1 12 C-1.33 12 -1.66 12 -2 12 C-2.05422947 10.5629191 -2.09289723 9.12524538 -2.125 7.6875 C-2.14820313 6.88699219 -2.17140625 6.08648437 -2.1953125 5.26171875 C-2 3 -2 3 0 0 Z " fill="#9122E7" transform="translate(59,76)"/>
<path d="M0 0 C3.05561782 1.05366132 3.98224736 1.97210299 5.75 4.75 C7.04143139 8.10772162 7.25425628 10.44041206 7 14 C6.34 14 5.68 14 5 14 C4.67 11.36 4.34 8.72 4 6 C3.34 6 2.68 6 2 6 C2 4.68 2 3.36 2 2 C1.34 2 0.68 2 0 2 C0 1.34 0 0.68 0 0 Z " fill="#C95AE5" transform="translate(159,69)"/>
<path d="M0 0 C0.99 1.32 1.98 2.64 3 4 C2.01 4.66 1.02 5.32 0 6 C-0.99 5.67 -1.98 5.34 -3 5 C-2.01 3.35 -1.02 1.7 0 0 Z M-7 9 C-6.34 9.33 -5.68 9.66 -5 10 C-5 10.99 -5 11.98 -5 13 C-6.32 13 -7.64 13 -9 13 C-8.34 11.68 -7.68 10.36 -7 9 Z " fill="#9904FA" transform="translate(75,149)"/>
<path d="M0 0 C0.99 0 1.98 0 3 0 C3 4.62 3 9.24 3 14 C0.81005752 10.71508627 0.64722661 9.16904361 0.375 5.3125 C0.30023438 4.31863281 0.22546875 3.32476562 0.1484375 2.30078125 C0.09945313 1.54152344 0.05046875 0.78226563 0 0 Z " fill="#9C4DE8" transform="translate(14,149)"/>
<path d="M0 0 C0.66 0 1.32 0 2 0 C1.54857225 1.77260631 1.08859477 3.5430368 0.625 5.3125 C0.36976562 6.29863281 0.11453125 7.28476563 -0.1484375 8.30078125 C-1 11 -1 11 -3 14 C-4.36884358 9.48281619 -3.47075246 6.41225737 -2 2 C-1.34 2 -0.68 2 0 2 C0 1.34 0 0.68 0 0 Z " fill="#9B46E5" transform="translate(31,83)"/>
<path d="M0 0 C3 1 3 1 3.94921875 2.85546875 C5.37868052 7.37075277 6.3692425 11.19984755 6 16 C4.08614468 13.12921701 3.03567048 10.66588344 1.875 7.4375 C1.52179688 6.46683594 1.16859375 5.49617188 0.8046875 4.49609375 C0 2 0 2 0 0 Z " fill="#D34BEA" transform="translate(190,78)"/>
<path d="M0 0 C1.32 0 2.64 0 4 0 C5.42944945 2.35438733 6.08661261 3.48032433 5.625 6.25 C5.41875 6.8275 5.2125 7.405 5 8 C4.566875 7.525625 4.13375 7.05125 3.6875 6.5625 C1.97690387 4.76313043 1.97690387 4.76313043 -1 4 C-0.67 2.68 -0.34 1.36 0 0 Z " fill="#C103F7" transform="translate(148,151)"/>
<path d="M0 0 C0.66 0 1.32 0 2 0 C1.74438677 2.3431213 1.40729228 4.67843403 1 7 C0.01 7.495 0.01 7.495 -1 8 C-1.46523063 9.89533342 -1.46523063 9.89533342 -1.625 12.0625 C-1.74875 13.361875 -1.8725 14.66125 -2 16 C-2.33 16 -2.66 16 -3 16 C-3.32712342 9.86946489 -3.39366878 5.37330889 0 0 Z " fill="#BB6BF0" transform="translate(46,89)"/>
<path d="M0 0 C1.65 0 3.3 0 5 0 C5.33 0.66 5.66 1.32 6 2 C5.360625 2.2475 4.72125 2.495 4.0625 2.75 C1.81258459 3.81562433 1.81258459 3.81562433 1.25 6.125 C1.1675 6.74375 1.085 7.3625 1 8 C0.01 7.67 -0.98 7.34 -2 7 C-1.125 2.25 -1.125 2.25 0 0 Z " fill="#BE04F7" transform="translate(147,70)"/>
<path d="M0 0 C0.66 0.33 1.32 0.66 2 1 C1.01 2.485 1.01 2.485 0 4 C-0.99 4 -1.98 4 -3 4 C-3 4.99 -3 5.98 -3 7 C-3.66 7 -4.32 7 -5 7 C-5 7.66 -5 8.32 -5 9 C-6.65 9.66 -8.3 10.32 -10 11 C-7.58662205 6.17324411 -4.13937592 3.30015998 0 0 Z " fill="#AE5FE8" transform="translate(46,52)"/>
<path d="M0 0 C1.98 0 3.96 0 6 0 C6.33 1.98 6.66 3.96 7 6 C4.36 5.34 1.72 4.68 -1 4 C-0.67 2.68 -0.34 1.36 0 0 Z " fill="#C103F9" transform="translate(155,111)"/>
<path d="M0 0 C0 1.32 0 2.64 0 4 C-1.98 4.33 -3.96 4.66 -6 5 C-6 4.01 -6 3.02 -6 2 C-6.99 1.34 -7.98 0.68 -9 0 C-5.93109813 -1.53445094 -3.29905734 -0.54984289 0 0 Z " fill="#B006F1" transform="translate(136,91)"/>
<path d="M0 0 C0.66 0.33 1.32 0.66 2 1 C1.01 1.33 0.02 1.66 -1 2 C-1.165 2.66 -1.33 3.32 -1.5 4 C-1.665 4.66 -1.83 5.32 -2 6 C-2.99 6.33 -3.98 6.66 -5 7 C-5.33 7.99 -5.66 8.98 -6 10 C-6.66 9.67 -7.32 9.34 -8 9 C-7.23997083 7.68121422 -6.46656347 6.3701316 -5.6875 5.0625 C-5.25824219 4.33160156 -4.82898437 3.60070312 -4.38671875 2.84765625 C-3 1 -3 1 0 0 Z " fill="#9739EC" transform="translate(38,62)"/>
<path d="M0 0 C0.33 0 0.66 0 1 0 C1.66 5.28 2.32 10.56 3 16 C2.01 15.67 1.02 15.34 0 15 C-1.33257403 4.44191344 -1.33257403 4.44191344 0 0 Z " fill="#A65DEB" transform="translate(21,145)"/>
<path d="M0 0 C4.66666667 0.66666667 9.33333333 1.33333333 14 2 C13.67 2.66 13.34 3.32 13 4 C5.73846154 4.49230769 5.73846154 4.49230769 2 2 C1.34 1.34 0.68 0.68 0 0 Z " fill="#BF54E7" transform="translate(124,108)"/>
<path d="M0 0 C1.98 0.495 1.98 0.495 4 1 C4.33 2.98 4.66 4.96 5 7 C3 6 1 5 -1 4 C-0.67 2.68 -0.34 1.36 0 0 Z " fill="#D303FA" transform="translate(182,60)"/>
<path d="M0 0 C0.66 0.33 1.32 0.66 2 1 C1.67 1.33 1.34 1.66 1 2 C3.475 2.99 3.475 2.99 6 4 C6 4.33 6 4.66 6 5 C2.37 5 -1.26 5 -5 5 C-5 4.34 -5 3.68 -5 3 C-2.625 1.3125 -2.625 1.3125 0 0 Z " fill="#B207F4" transform="translate(134,52)"/>
<path d="M0 0 C7.625 0.875 7.625 0.875 11 2 C11 2.99 11 3.98 11 5 C6.12637153 4.54663921 3.60957611 3.2910841 0 0 Z " fill="#CA41E8" transform="translate(165,170)"/>
<path d="M0 0 C0.7425 0.53625 1.485 1.0725 2.25 1.625 C3.1575 2.07875 4.065 2.5325 5 3 C7.30287793 2.30859649 7.30287793 2.30859649 9 1 C9 1.99 9 2.98 9 4 C5.77208445 6.1519437 4.71599191 6.20086443 1 6 C1 5.01 1 4.02 1 3 C0.34 3 -0.32 3 -1 3 C-0.67 2.01 -0.34 1.02 0 0 Z " fill="#C949E9" transform="translate(149,121)"/>
<path d="M0 0 C1.67542976 0.28604898 3.34385343 0.61781233 5 1 C4.67 1.99 4.34 2.98 4 4 C1.69 4.33 -0.62 4.66 -3 5 C-1.125 1.125 -1.125 1.125 0 0 Z " fill="#8E03FA" transform="translate(44,171)"/>
<path d="M0 0 C0.66 0 1.32 0 2 0 C1.50769231 6.4 1.50769231 6.4 -1.0625 9.4375 C-1.701875 9.953125 -2.34125 10.46875 -3 11 C-3 9.02 -3 7.04 -3 5 C-2.01 5 -1.02 5 0 5 C0 3.35 0 1.7 0 0 Z " fill="#D02FE8" transform="translate(205,162)"/>
<path d="M0 0 C1.32 0 2.64 0 4 0 C4.33 1.32 4.66 2.64 5 4 C2.29120665 5.35439668 -0.00933268 5.06501451 -3 5 C-2.67 4.34 -2.34 3.68 -2 3 C-1.34 3 -0.68 3 0 3 C0 2.01 0 1.02 0 0 Z " fill="#B406F3" transform="translate(135,142)"/>
<path d="M0 0 C0.99 0.66 1.98 1.32 3 2 C-0.40401948 3.13732426 -2.77456664 2.83989957 -6.25 2.0625 C-7.14203125 1.86785156 -8.0340625 1.67320312 -8.953125 1.47265625 C-9.62859375 1.31667969 -10.3040625 1.16070312 -11 1 C-6.9840912 -1.29480503 -4.53002084 -0.98836818 0 0 Z " fill="#BF48E8" transform="translate(130,144)"/>
<path d="M0 0 C0.66 0 1.32 0 2 0 C2 0.66 2 1.32 2 2 C2.66 2 3.32 2 4 2 C4 2.66 4 3.32 4 4 C0.3558226 6.4294516 -1.71241272 6.16179575 -6 6 C-6 5.67 -6 5.34 -6 5 C-4.35 5 -2.7 5 -1 5 C-0.67 3.35 -0.34 1.7 0 0 Z " fill="#B80AEC" transform="translate(157,69)"/>
<path d="M0 0 C0.99 0.33 1.98 0.66 3 1 C1.68 1.33 0.36 1.66 -1 2 C-0.67 1.34 -0.34 0.68 0 0 Z M-4 2 C-2.68 2.33 -1.36 2.66 0 3 C-0.99 3.495 -0.99 3.495 -2 4 C-2 4.99 -2 5.98 -2 7 C-3.65 6.67 -5.3 6.34 -7 6 C-6.67 5.34 -6.34 4.68 -6 4 C-5.34 4 -4.68 4 -4 4 C-4 3.34 -4 2.68 -4 2 Z " fill="#D538F5" transform="translate(182,170)"/>
<path d="M0 0 C0.66 0.66 1.32 1.32 2 2 C5.08347826 2.16681109 5.08347826 2.16681109 8 2 C8 2.66 8 3.32 8 4 C2.7265625 7.22265625 2.7265625 7.22265625 1 8 C0.34 7.67 -0.32 7.34 -1 7 C-0.67 6.01 -0.34 5.02 0 4 C0 2.68 0 1.36 0 0 Z " fill="#C238F6" transform="translate(129,101)"/>
<path d="M0 0 C2.97 0.495 2.97 0.495 6 1 C5.625 3.4375 5.625 3.4375 5 6 C4.01 6.495 4.01 6.495 3 7 C2.67 5.35 2.34 3.7 2 2 C1.34 2 0.68 2 0 2 C0 1.34 0 0.68 0 0 Z " fill="#D104F5" transform="translate(187,68)"/>
<path d="M0 0 C0.33 0.99 0.66 1.98 1 3 C-3.29 2.67 -7.58 2.34 -12 2 C-12 1.67 -12 1.34 -12 1 C-7.9472484 0.01751476 -4.16138263 -0.08159574 0 0 Z " fill="#B44EEC" transform="translate(81,53)"/>
<path d="M0 0 C0.66 0 1.32 0 2 0 C2.33 0.99 2.66 1.98 3 3 C-1.48074195 6.36055646 -4.60550707 6.27429625 -10 6 C-10 5.67 -10 5.34 -10 5 C-7.69 5 -5.38 5 -3 5 C-3 4.34 -3 3.68 -3 3 C-2.01 3 -1.02 3 0 3 C0 2.01 0 1.02 0 0 Z " fill="#D75CEE" transform="translate(180,106)"/>
<path d="M0 0 C0.96661363 3.12180401 0.98988909 5.52083795 0.5625 8.75 C0.40974609 9.94882813 0.40974609 9.94882813 0.25390625 11.171875 C0.12822266 12.07679687 0.12822266 12.07679687 0 13 C-0.66 12.67 -1.32 12.34 -2 12 C-1.85831863 10.56208484 -1.71148957 9.1246763 -1.5625 7.6875 C-1.48128906 6.88699219 -1.40007813 6.08648437 -1.31640625 5.26171875 C-1 3 -1 3 0 0 Z " fill="#A959EE" transform="translate(20,96)"/>
<path d="M0 0 C-0.33 0.99 -0.66 1.98 -1 3 C-1.78375 3.144375 -2.5675 3.28875 -3.375 3.4375 C-5.96421018 3.87798925 -5.96421018 3.87798925 -8 5 C-8 4.34 -8 3.68 -8 3 C-9.32 2.67 -10.64 2.34 -12 2 C-10.56342755 1.66269158 -9.12569907 1.33030409 -7.6875 1 C-6.88699219 0.814375 -6.08648437 0.62875 -5.26171875 0.4375 C-3 0 -3 0 0 0 Z " fill="#C550ED" transform="translate(138,50)"/>
<path d="M0 0 C1.32 1.32 2.64 2.64 4 4 C3.34 5.98 2.68 7.96 2 10 C1.34 9.67 0.68 9.34 0 9 C0.020625 8.21625 0.04125 7.4325 0.0625 6.625 C0.18684063 4.01885039 0.18684063 4.01885039 -1 2 C-0.67 1.34 -0.34 0.68 0 0 Z " fill="#BE08F4" transform="translate(159,120)"/>
<path d="M0 0 C0.33 1.32 0.66 2.64 1 4 C-0.32 4.33 -1.64 4.66 -3 5 C-3 5.66 -3 6.32 -3 7 C-3.66 7 -4.32 7 -5 7 C-4.75 4.625 -4.75 4.625 -4 2 C-1.9375 0.6875 -1.9375 0.6875 0 0 Z " fill="#B20AEB" transform="translate(148,118)"/>
<path d="M0 0 C0.66 0.33 1.32 0.66 2 1 C2.40729228 3.32156597 2.74438677 5.6568787 3 8 C2.01 8.495 2.01 8.495 1 9 C-1.14809171 5.77786243 -1.29386153 4.72224599 -1 1 C-0.67 0.67 -0.34 0.34 0 0 Z " fill="#8C21ED" transform="translate(18,108)"/>
<path d="M0 0 C2.97 0.33 5.94 0.66 9 1 C9 1.33 9 1.66 9 2 C5.7 2.66 2.4 3.32 -1 4 C-0.67 2.68 -0.34 1.36 0 0 Z " fill="#AA4DEE" transform="translate(55,53)"/>
<path d="M0 0 C3.96 1.98 3.96 1.98 8 4 C5.38058783 5.74627478 3.96175123 6.38722388 1 7 C0 2.25 0 2.25 0 0 Z " fill="#AC5BF1" transform="translate(27,166)"/>
<path d="M0 0 C2.64 0.33 5.28 0.66 8 1 C5.08596738 2.94268841 2.14191424 4.46395304 -1 6 C-0.67 4.02 -0.34 2.04 0 0 Z " fill="#AC38EB" transform="translate(84,146)"/>
<path d="M0 0 C2.1519437 3.22791555 2.20086443 4.28400809 2 8 C-0.64 7.67 -3.28 7.34 -6 7 C-5.071875 6.6596875 -5.071875 6.6596875 -4.125 6.3125 C-1.38589791 4.62070165 -0.94975528 3.00755839 0 0 Z " fill="#D74CF2" transform="translate(178,98)"/>
<path d="M0 0 C1.43088528 2.86177057 0.59991697 4.93375773 0 8 C-1.65 7.67 -3.3 7.34 -5 7 C-2.25 1.125 -2.25 1.125 0 0 Z " fill="#8602F7" transform="translate(39,63)"/>
<path d="M0 0 C3.93673644 1.31224548 6.22719294 2.91910327 9 6 C8.01 6 7.02 6 6 6 C5.67 5.34 5.34 4.68 5 4 C3.68 4 2.36 4 1 4 C0.67 2.68 0.34 1.36 0 0 Z " fill="#CD48E9" transform="translate(172,49)"/>
<path d="M0 0 C2.05078125 0.03255208 4.1015625 0.06510417 6.15234375 0.09765625 C5.82234375 0.75765625 5.49234375 1.41765625 5.15234375 2.09765625 C4.16234375 2.09765625 3.17234375 2.09765625 2.15234375 2.09765625 C2.15234375 2.75765625 2.15234375 3.41765625 2.15234375 4.09765625 C1.49234375 4.09765625 0.83234375 4.09765625 0.15234375 4.09765625 C0.15234375 3.43765625 0.15234375 2.77765625 0.15234375 2.09765625 C-0.83765625 1.76765625 -1.82765625 1.43765625 -2.84765625 1.09765625 C-1.84765625 0.09765625 -1.84765625 0.09765625 0 0 Z " fill="#CF05F6" transform="translate(175.84765625,169.90234375)"/>
<path d="M0 0 C-4.1795645 2.78637633 -6.14668677 1.79562512 -11 1 C-11 0.67 -11 0.34 -11 0 C-7.01803543 -1.05404945 -4.01804691 -0.84098656 0 0 Z " fill="#C745EC" transform="translate(149,49)"/>
<path d="M0 0 C0.99 0.33 1.98 0.66 3 1 C3 2.98 3 4.96 3 7 C2.01 7 1.02 7 0 7 C-1.125 2.25 -1.125 2.25 0 0 Z " fill="#C203F7" transform="translate(159,158)"/>
<path d="M0 0 C2.09749995 2.35968744 2.96905704 3.54616994 3.1875 6.75 C3.0946875 7.86375 3.0946875 7.86375 3 9 C2.01 8.67 1.02 8.34 0 8 C0 5.36 0 2.72 0 0 Z " fill="#CC35E4" transform="translate(200,106)"/>
<path d="M0 0 C0.94875 0.04125 1.8975 0.0825 2.875 0.125 C2.875 1.445 2.875 2.765 2.875 4.125 C0.235 3.465 -2.405 2.805 -5.125 2.125 C-3.125 0.125 -3.125 0.125 0 0 Z " fill="#C029ED" transform="translate(152.125,67.875)"/>
<path d="M0 0 C1.32 0 2.64 0 4 0 C4.66 1.32 5.32 2.64 6 4 C4.35 4 2.7 4 1 4 C0.67 2.68 0.34 1.36 0 0 Z " fill="#C203FC" transform="translate(148,85)"/>
<path d="M0 0 C0.33 0.99 0.66 1.98 1 3 C-1.31 3.33 -3.62 3.66 -6 4 C-6.33 3.34 -6.66 2.68 -7 2 C-4.35261084 0.5393715 -3.10551666 0 0 0 Z " fill="#B902FC" transform="translate(137,106)"/>
<path d="M0 0 C0.99 0.33 1.98 0.66 3 1 C3.33 2.65 3.66 4.3 4 6 C3.01 6.495 3.01 6.495 2 7 C2 6.01 2 5.02 2 4 C1.34 4 0.68 4 0 4 C0 2.68 0 1.36 0 0 Z " fill="#AA48E6" transform="translate(89,89)"/>
<path d="M0 0 C1.32 0.33 2.64 0.66 4 1 C4.33 2.32 4.66 3.64 5 5 C3.35 4.67 1.7 4.34 0 4 C0 2.68 0 1.36 0 0 Z " fill="#BA1AED" transform="translate(144,84)"/>
<path d="M0 0 C0 0.33 0 0.66 0 1 C-6.0546875 1.9765625 -6.0546875 1.9765625 -8 2 C-8.66 1.34 -9.32 0.68 -10 0 C-6.42355152 -1.2380014 -3.66305234 -0.74926071 0 0 Z " fill="#C94BED" transform="translate(148,55)"/>
</svg>
