<?xml version="1.0" standalone="no"?>
<!DOCTYPE svg PUBLIC "-//W3C//DTD SVG 20010904//EN"
 "http://www.w3.org/TR/2001/REC-SVG-20010904/DTD/svg10.dtd">
<svg version="1.0" xmlns="http://www.w3.org/2000/svg"
 width="225.000000pt" height="225.000000pt" viewBox="0 0 225.000000 225.000000"
 preserveAspectRatio="xMidYMid meet">

<g transform="translate(0.000000,225.000000) scale(0.100000,-0.100000)"
fill="#000000" stroke="none">
<path d="M285 1618 c-153 -266 -278 -488 -278 -493 0 -6 125 -227 279 -493
l278 -482 561 0 561 0 279 482 c153 266 278 487 278 493 0 6 -125 227 -278
493 l-279 482 -561 0 -561 0 -279 -482z m1559 -72 c131 -228 239 -416 240
-419 1 -3 -107 -192 -239 -421 l-240 -416 -480 0 -480 0 -239 414 c-131 228
-239 416 -240 419 -1 3 107 192 239 421 l240 416 480 0 480 0 239 -414z"/>
<path d="M562 1409 c-58 -38 -81 -114 -67 -225 9 -77 56 -128 127 -138 58 -9
68 -24 68 -101 0 -71 -12 -95 -48 -95 -37 0 -52 17 -52 57 0 33 0 33 -50 33
-45 0 -50 -2 -50 -22 0 -48 22 -97 55 -127 64 -56 147 -50 205 15 29 34 30 37
30 141 l0 105 -38 39 c-28 27 -51 40 -81 45 -61 10 -71 24 -71 104 0 63 2 71
25 86 23 15 27 15 50 0 19 -12 25 -25 25 -51 l0 -35 48 0 48 0 -6 53 c-6 58
-25 90 -67 118 -38 26 -109 24 -151 -2z"/>
<path d="M810 1385 l0 -45 50 0 50 0 0 -295 0 -295 45 0 45 0 2 293 3 292 48
3 47 3 0 45 0 44 -145 0 -145 0 0 -45z"/>
<path d="M1199 1407 c-64 -42 -69 -65 -69 -315 0 -248 5 -273 64 -315 44 -31
119 -30 165 2 56 40 61 64 61 318 0 210 -2 231 -20 261 -43 70 -135 93 -201
49z m122 -104 c5 -13 9 -111 9 -216 0 -158 -3 -197 -16 -215 -17 -24 -53 -29
-72 -10 -13 13 -17 434 -4 454 20 30 69 22 83 -13z"/>
<path d="M1510 1089 l0 -340 48 3 47 3 3 143 3 142 50 0 c62 0 112 22 128 56
6 14 11 78 11 150 0 125 0 126 -29 155 -29 29 -31 29 -145 29 l-116 0 0 -341z
m184 229 c18 -26 22 -129 6 -159 -8 -14 -21 -19 -50 -19 l-40 0 0 100 0 100
34 0 c25 0 39 -7 50 -22z"/>
</g>
</svg>
