<?xml version="1.0" encoding="UTF-8"?>
<svg version="1.1" xmlns="http://www.w3.org/2000/svg" width="512" height="512">
<path d="M0 0 C5.60239427 5.32227456 8.54032354 10.06422466 11.22265625 17.23046875 C11.72931068 18.54009331 11.72931068 18.54009331 12.24620056 19.87617493 C13.36225023 22.76765529 14.46212874 25.665021 15.5625 28.5625 C16.35354262 30.61898051 17.14588719 32.67496063 17.93945312 34.73046875 C19.61264476 39.06651644 21.2807269 43.40448139 22.94580078 47.74365234 C26.66203434 57.41132125 30.45624593 67.04833205 34.24679565 76.68704224 C36.34495206 82.02442719 38.43791427 87.36384795 40.53125 92.703125 C40.94394638 93.75552872 41.35664276 94.80793243 41.78184509 95.89222717 C48.01596805 111.78979443 54.24653287 127.68872936 60.45689392 143.59559631 C62.41290753 148.60286079 64.37801165 153.60639316 66.35354614 158.60598755 C67.49885443 161.50720488 68.63848309 164.41063039 69.77685547 167.3145752 C70.29124496 168.6226878 70.8082369 169.92978075 71.328125 171.23571777 C77.61727144 187.03907992 77.61727144 187.03907992 75.5 194.4375 C75.190625 195.63052734 75.190625 195.63052734 74.875 196.84765625 C69.95856683 205.88439563 59.5797586 208.47232422 50.5625 211.875 C48.8957221 212.51659249 47.22956299 213.15979437 45.56396484 213.80444336 C41.88580108 215.22675627 38.20510788 216.6422628 34.52294922 218.05419922 C24.71037752 221.82550372 14.93611283 225.69501222 5.15530396 229.54772949 C-0.8114916 231.89667072 -6.78088607 234.23898926 -12.75 236.58203125 C-22.08063737 240.24543801 -31.40998091 243.91211057 -40.73809433 247.58193779 C-45.08827256 249.29323397 -49.43872427 251.00383492 -53.78912354 252.71456909 C-56.12857133 253.63474287 -58.46789211 254.55523966 -60.80706787 255.47610474 C-66.21589154 257.60531584 -71.62654963 259.72947304 -77.04199219 261.84179688 C-81.570778 263.60996656 -86.0833168 265.41462683 -90.59082031 267.23632812 C-92.91722004 268.16300564 -95.24371459 269.08944517 -97.5703125 270.015625 C-98.63426239 270.45308044 -99.69821228 270.89053589 -100.79440308 271.34124756 C-107.67601304 274.05685738 -113.62735776 275.74423542 -120.98828125 273.67578125 C-121.59027344 273.34964844 -122.19226563 273.02351563 -122.8125 272.6875 C-123.73482422 272.21763672 -123.73482422 272.21763672 -124.67578125 271.73828125 C-130.63773952 267.28277068 -132.67856814 260.62085152 -135.3125 253.9375 C-135.78840576 252.74922607 -136.26431152 251.56095215 -136.75463867 250.33666992 C-138.07320214 247.04150194 -139.37992557 243.74175909 -140.68359375 240.44067383 C-141.49407858 238.38998239 -142.30713919 236.34033211 -143.12109375 234.29101562 C-149.32776428 218.66131819 -155.46797189 203.00545907 -161.61328125 187.3515625 C-162.98459918 183.8586144 -164.35593088 180.3656717 -165.72729492 176.8727417 C-166.65774003 174.50270704 -167.58807889 172.13263066 -168.51831055 169.76251221 C-173.84040029 156.20373328 -179.17560437 142.6502912 -184.54296875 129.109375 C-184.78790573 128.49142626 -185.03284271 127.87347752 -185.28520203 127.23680305 C-187.87530757 120.70302162 -190.46809112 114.1703075 -193.06298828 107.63842773 C-193.48945145 106.56413513 -193.91591461 105.48984253 -194.3553009 104.38299561 C-195.15168606 102.3769708 -195.9487551 100.3712173 -196.74662781 98.36578369 C-197.09683487 97.48348083 -197.44704193 96.60117798 -197.80786133 95.69213867 C-198.11234695 94.92616867 -198.41683258 94.16019867 -198.73054504 93.37101746 C-200.82225157 87.94499127 -201.60254104 82.7904804 -199.78125 77.1484375 C-195.75793166 68.48532462 -188.73059791 65.97270348 -180.25 62.625 C-178.48462891 61.91718384 -178.48462891 61.91718384 -176.68359375 61.19506836 C-172.62859126 59.57257382 -168.56516546 57.97183307 -164.5 56.375 C-163.77176025 56.08884827 -163.04352051 55.80269653 -162.29321289 55.50787354 C-153.16469567 51.92350806 -144.02693132 48.3630099 -134.88671875 44.80859375 C-122.68565213 40.06367096 -110.49875377 35.28281109 -98.3125 30.5 C-94.01829921 28.81492562 -89.72402333 27.13004271 -85.4296875 25.4453125 C-84.36606491 25.02803391 -83.30244232 24.61075531 -82.20658875 24.18083191 C-74.60021396 21.19731573 -66.99203577 18.21843083 -59.3828125 15.2421875 C-58.32742783 14.82937531 -57.27204315 14.41656311 -56.18467712 13.99124146 C-51.17063723 12.03017463 -46.15637267 10.06968429 -41.1418457 8.10986328 C-39.34325895 7.40658259 -37.54467483 6.7032952 -35.74609375 6 C-34.55725082 5.53568069 -34.55725082 5.53568069 -33.34439087 5.0619812 C-32.5867746 4.76566803 -31.82915833 4.46935486 -31.04858398 4.1640625 C-30.31157257 3.87623901 -29.57456116 3.58841553 -28.81521606 3.29187012 C-27.14909456 2.63205394 -25.48791668 1.95970446 -23.83004761 1.27941895 C-22.94487457 0.9171521 -22.05970154 0.55488525 -21.14770508 0.18164062 C-20.34488602 -0.15073608 -19.54206696 -0.48311279 -18.71492004 -0.82556152 C-12.63312167 -3.02068529 -5.80316554 -2.69432686 0 0 Z M-14.27774048 20.84820557 C-14.99900116 21.13065125 -15.72026184 21.41309692 -16.46337891 21.70410156 C-17.29128433 22.02402573 -18.11918976 22.34394989 -18.97218323 22.67356873 C-19.88112839 23.0339473 -20.79007355 23.39432587 -21.7265625 23.765625 C-23.1563871 24.32220543 -23.1563871 24.32220543 -24.61509705 24.89002991 C-27.78805624 26.12751155 -30.95649627 27.37615898 -34.125 28.625 C-36.35646672 29.49820937 -38.58815959 30.37084105 -40.82006836 31.24291992 C-47.71807577 33.94173031 -54.60983041 36.65625104 -61.5 39.375 C-62.5296991 39.7811554 -63.55939819 40.18731079 -64.62030029 40.60577393 C-73.38291512 44.06308244 -82.14260494 47.52773696 -90.89794922 51.00341797 C-102.10467561 55.45187543 -113.31865614 59.88127967 -124.54296875 64.28515625 C-125.17775713 64.53425814 -125.81254551 64.78336002 -126.4665699 65.04001045 C-133.3017395 67.72215392 -140.13783455 70.40191948 -146.97485352 73.0793457 C-149.23845509 73.96693137 -151.5020461 74.85454399 -153.765625 75.7421875 C-154.77614426 76.13724991 -155.78666351 76.53231232 -156.82780457 76.93934631 C-163.75815187 79.65855648 -170.63797824 82.48785484 -177.5 85.375 C-175.54831648 92.25288524 -173.2448769 98.89709555 -170.60546875 105.5390625 C-170.22590027 106.50393082 -169.84633179 107.46879913 -169.45526123 108.46290588 C-168.20309505 111.64343133 -166.94529331 114.82169618 -165.6875 118 C-164.79525219 120.26326925 -163.90341504 122.52670044 -163.01196289 124.7902832 C-161.13411159 129.55734777 -159.25423825 134.32360804 -157.37304688 139.08935547 C-154.55788106 146.22420079 -151.75386201 153.36338653 -148.953125 160.50390625 C-144.83693843 170.99795135 -140.71514651 181.489771 -136.58787537 191.97946167 C-133.82960448 198.99066135 -131.07662056 206.00390942 -128.3271637 213.01856995 C-126.55835456 217.52814386 -124.78515309 222.03598115 -123.01077271 226.54336548 C-122.17582139 228.66697087 -121.3426865 230.79129141 -120.51144409 232.91635132 C-119.37182035 235.82896801 -118.22579812 238.73898504 -117.078125 241.6484375 C-116.74275223 242.51011032 -116.40737946 243.37178314 -116.06184387 244.25956726 C-115.7517186 245.04193253 -115.44159332 245.82429779 -115.12207031 246.63037109 C-114.72196747 247.64942032 -114.72196747 247.64942032 -114.31378174 248.6890564 C-113.51570783 250.57891057 -113.51570783 250.57891057 -111.5 252.375 C-110.49066406 251.97522949 -109.48132813 251.57545898 -108.44140625 251.16357422 C-86.07721269 242.30736479 -63.70179404 233.48006785 -41.3125 224.6875 C-40.15482117 224.23286377 -38.99714233 223.77822754 -37.80438232 223.30981445 C-31.84025734 220.96777094 -25.87598156 218.62611172 -19.91162109 216.28466797 C-9.01364268 212.00641986 1.88394504 207.72717712 12.78116131 203.44698811 C17.03909997 201.77458554 21.29723812 200.10269159 25.55541992 198.4309082 C27.78434954 197.55551935 30.01327242 196.68011335 32.2421875 195.8046875 C33.23764084 195.41398575 34.23309418 195.023284 35.25871277 194.6207428 C41.34840438 192.22839534 47.42822337 189.81245982 53.5 187.375 C52.688019 182.99911015 51.3298176 179.00462729 49.71875 174.8671875 C49.29165993 173.75684395 49.29165993 173.75684395 48.85594177 172.62406921 C47.90822128 170.16437772 46.95431012 167.70714168 46 165.25 C45.32090615 163.49346185 44.64195399 161.73686891 43.96313477 159.98022461 C38.14393391 144.94510858 32.21899294 129.95200215 26.27700806 114.96508789 C20.48826285 100.36340666 14.74141005 85.74534004 9 71.125 C8.54100311 69.95647491 8.08200623 68.78794983 7.60910034 67.58401489 C6.70937904 65.29343511 5.80984522 63.00278169 4.9105072 60.71205139 C4.04125331 58.49879065 3.17120307 56.28584249 2.30030823 54.07322693 C0.14798505 48.59991496 -1.98526482 43.12031571 -4.0859375 37.62695312 C-4.49791382 36.55576233 -4.90989014 35.48457153 -5.33435059 34.38092041 C-6.11498322 32.34908612 -6.89007434 30.31511149 -7.65881348 28.27874756 C-8.00408081 27.38270813 -8.34934814 26.4866687 -8.70507812 25.56347656 C-9.00482544 24.77539612 -9.30457275 23.98731567 -9.61340332 23.175354 C-10.79112366 20.78383418 -11.64736547 20.14804257 -14.27774048 20.84820557 Z " fill="#000000" transform="translate(306.5,1.625)"/>
<path d="M0 0 C0.6625284 0.17311266 1.3250568 0.34622532 2.00766182 0.52458382 C4.20194805 1.10047247 6.3922266 1.69029865 8.58276367 2.28027344 C10.16006094 2.69734491 11.73758699 3.11355203 13.31532288 3.52896118 C17.57610703 4.65346123 21.83355327 5.79014725 26.09047699 6.92916107 C30.55821595 8.12238186 35.02891331 9.30441603 39.49926758 10.48779297 C47.86527512 12.70434486 56.2284954 14.93122133 64.59050751 17.16279411 C70.93750197 18.85651697 77.285386 20.54685796 83.6340332 22.234375 C96.77050564 25.72628437 109.90641861 29.22027733 123.0390625 32.7265625 C123.77682136 32.92345169 124.51458021 33.12034088 125.2746954 33.32319641 C128.85102413 34.27814146 132.42655035 35.23591578 136.00047302 36.1998291 C142.50588376 37.95246467 149.01497598 39.67038781 155.55249023 41.30078125 C157.33648727 41.75482834 157.33648727 41.75482834 159.15652466 42.2180481 C161.34370014 42.77335027 163.53447556 43.31477119 165.72946167 43.83834839 C173.28594952 45.77883194 179.13973155 48.71661604 183.93823242 55.01464844 C187.27888137 66.28933864 183.48447099 77.49156206 180.49682617 88.40917969 C180.02001657 90.19548178 179.54457446 91.98214936 179.07038879 93.76914978 C177.78891796 98.58400652 176.48952249 103.39385387 175.1865387 108.20292664 C173.82446871 113.24130649 172.47800728 118.28385072 171.13061523 123.32617188 C169.45208695 129.60458959 167.77217299 135.88261871 166.0852356 142.15878296 C162.39245275 155.90350873 158.75636349 169.66203338 155.16635323 183.43395042 C154.37160944 186.48161413 153.57537379 189.52888375 152.77854919 192.57600403 C152.5201743 193.5640676 152.26179941 194.55213118 151.99559498 195.57013607 C151.48104502 197.53764799 150.96645739 199.50515005 150.45183086 201.47264194 C149.19746649 206.2703994 147.94631728 211.0689522 146.70187378 215.86929321 C145.53429292 220.37192159 144.35710504 224.87193188 143.17276573 229.37018013 C142.7415387 231.01507844 142.31383666 232.66090567 141.88999367 234.30772209 C141.31025159 236.55862214 140.71805615 238.80589455 140.12280273 241.05273438 C139.79548157 242.30826111 139.4681604 243.56378784 139.13092041 244.85736084 C136.71406666 252.01516121 133.40722392 256.90687538 126.68823242 260.63964844 C119.15129348 262.69517724 111.95936135 260.9394835 104.60668945 258.92138672 C103.60962825 258.65735865 102.61256704 258.39333057 101.58529186 258.12130165 C98.28595354 257.24476163 94.99110979 256.35241892 91.69604492 255.45996094 C89.35582489 254.83490406 87.01533942 254.21084028 84.67460632 253.58770752 C78.42358143 251.92059783 72.17631674 250.23980086 65.92981339 248.55583954 C60.13694916 246.99496174 54.34120009 245.44484259 48.54569685 243.89379907 C40.20839899 241.66235365 31.8717926 239.42836143 23.53709412 237.18722534 C9.78352499 233.48902837 -3.97538275 229.81318574 -17.74795532 226.18638992 C-22.45566799 224.94570228 -27.16179161 223.69900279 -31.86784744 222.45204735 C-35.38500734 221.52056144 -38.90301176 220.59259238 -42.42327881 219.6729126 C-46.21617902 218.68173973 -50.00436669 217.67332335 -53.79223633 216.66308594 C-55.40597893 216.24630585 -55.40597893 216.24630585 -57.05232239 215.82110596 C-64.34827788 213.85393515 -70.12843923 211.38011858 -75.06176758 205.38964844 C-78.59340777 197.62004001 -77.05672518 190.18157022 -74.90063477 182.30834961 C-74.55322188 180.99285488 -74.55322188 180.99285488 -74.19879055 179.65078449 C-73.42811168 176.7421451 -72.64340741 173.83748486 -71.85864258 170.93261719 C-71.30661169 168.8602978 -70.75546888 166.78774167 -70.20515442 164.71496582 C-68.72538427 159.15128182 -67.23351343 153.59091082 -65.73906326 148.03115463 C-64.19166098 142.26736518 -62.65437159 136.50088037 -61.11621094 130.73461914 C-59.24830227 123.73515965 -57.37899105 116.73608399 -55.5042572 109.7384491 C-51.86551359 96.15609181 -48.25033669 82.56789152 -44.66918564 68.97023582 C-43.29762394 63.76480911 -41.92184371 58.56049571 -40.5461483 53.35616016 C-39.48467148 49.33939039 -38.42545693 45.32205371 -37.37145996 41.30331421 C-36.39467235 37.57987627 -35.41071005 33.85840793 -34.42123985 30.13832092 C-33.90056508 28.17336857 -33.38746589 26.20641355 -32.87471008 24.23937988 C-27.91764566 5.68034184 -27.91764566 5.68034184 -20.06176758 0.38964844 C-13.72844817 -3.11034387 -6.68617348 -1.77625301 0 0 Z M-9.06176758 20.38964844 C-15.52788382 41.73791782 -21.122083 63.31087275 -26.77416992 84.88499832 C-28.90149044 93.00063173 -31.0362756 101.11430763 -33.17041016 109.22815132 C-33.7016146 111.24784884 -34.23270207 113.26757713 -34.76367188 115.28733635 C-38.13545913 128.11201075 -41.52811689 140.93072444 -44.96801758 153.73730469 C-45.14950851 154.41316494 -45.33099945 155.08902519 -45.51799011 155.78536606 C-47.32135277 162.49887519 -49.13138804 169.21056513 -50.9465332 175.92089844 C-51.37548889 177.51193642 -51.37548889 177.51193642 -51.81311035 179.13511658 C-52.33575171 181.07350058 -52.86041676 183.01134063 -53.38757324 184.94850159 C-53.61134644 185.77929733 -53.83511963 186.61009308 -54.06567383 187.46606445 C-54.2597583 188.18198257 -54.45384277 188.8979007 -54.65380859 189.63551331 C-55.13727569 191.41415862 -55.13727569 191.41415862 -55.06176758 193.38964844 C-32.87545557 199.38033723 -10.67193218 205.30220476 11.55932617 211.12402344 C13.19624357 211.55269966 13.19624357 211.55269966 14.86623001 211.99003601 C21.57209336 213.74572532 28.27839529 215.49973472 34.98486328 217.25311279 C44.00661375 219.61183058 53.02808506 221.97161322 62.04909134 224.33317566 C64.20894467 224.89850489 66.36885354 225.46362196 68.52882004 226.02851868 C88.21441878 231.17755321 88.21441878 231.17755321 97.7746582 233.77441406 C99.01425797 234.11112122 100.25385773 234.44782837 101.53102112 234.79473877 C103.69057844 235.3845093 105.84916232 235.97786363 108.00645447 236.5758667 C109.35725853 236.94630096 109.35725853 236.94630096 110.73535156 237.32421875 C111.48708145 237.53314758 112.23881134 237.74207642 113.01332092 237.95733643 C115.09727025 238.49921322 115.09727025 238.49921322 117.93823242 238.38964844 C122.4139742 222.96559187 126.62688423 207.48164456 130.73510742 191.95605469 C131.37501915 189.54357121 132.01509869 187.13113224 132.65533447 184.71873474 C134.33008002 178.40634769 136.00238264 172.09331597 137.67419434 165.78015137 C139.01301375 160.72609599 140.35357966 155.6725047 141.69423676 150.61893654 C149.1403605 122.55077636 156.56449826 94.47691761 163.93823242 66.38964844 C148.50349831 61.90931147 133.00754873 57.69883021 117.46948242 53.59277344 C115.05459311 52.95290039 112.63975873 52.31281997 110.22497559 51.67254639 C103.90725324 49.99787556 97.58894017 48.32544556 91.27044678 46.65368652 C81.24425062 44.00066563 71.21879281 41.34485688 61.19360352 38.68803406 C58.76022474 38.04323452 56.32679407 37.3986308 53.89331055 36.75422668 C41.97789644 33.59863498 30.06483183 30.43564708 18.16870117 27.20800781 C17.28019722 26.96700222 16.39169327 26.72599663 15.47626495 26.47768784 C11.43024544 25.37918992 7.38531158 24.27688967 3.34191895 23.16876221 C1.96321951 22.79283434 0.58451694 22.41691799 -0.79418945 22.04101562 C-1.96784058 21.71913269 -3.1414917 21.39724976 -4.35070801 21.06561279 C-6.91952221 20.30900541 -6.91952221 20.30900541 -9.06176758 20.38964844 Z " fill="#000000" transform="translate(315.061767578125,243.6103515625)"/>
<path d="M0 0 C0.7867532 -0.00453111 1.57350641 -0.00906223 2.38410062 -0.01373065 C5.01712858 -0.02637835 7.6499498 -0.02475404 10.28300476 -0.02310181 C12.17221848 -0.02908685 14.06142976 -0.03589234 15.95063782 -0.04345703 C21.08089364 -0.06112723 26.21108274 -0.06581286 31.34136605 -0.0670886 C34.5474309 -0.06851024 37.75347878 -0.07278009 40.95953941 -0.07808304 C52.146962 -0.09658704 63.33433691 -0.10475323 74.52177429 -0.10317993 C84.94585717 -0.10197859 95.36973298 -0.12307857 105.79376346 -0.15466726 C114.74679135 -0.18083027 123.69975161 -0.19154721 132.65281743 -0.19026911 C137.99852126 -0.18975947 143.34404109 -0.19544418 148.6897068 -0.21662521 C153.71880709 -0.23600778 158.74754786 -0.23613183 163.77666092 -0.22159195 C165.6196883 -0.21950275 167.46273817 -0.22421136 169.30572701 -0.23631287 C171.82761063 -0.25179613 174.34825932 -0.24243758 176.87011719 -0.22705078 C177.59435688 -0.23733791 178.31859657 -0.24762503 179.06478292 -0.25822389 C185.6043749 -0.17043384 190.91451795 1.9982248 195.50053406 6.70492554 C198.76579402 11.85398932 199.41716944 16.16660781 199.38623047 22.1933136 C199.39005602 22.98556149 199.39388156 23.77780937 199.39782304 24.59406477 C199.408132 27.24558804 199.4041649 29.89689391 199.40019226 32.5484314 C199.40453988 34.45074158 199.4097232 36.35305001 199.41567993 38.25535583 C199.42907538 43.42060686 199.42964801 48.58578474 199.42711663 53.75104976 C199.42604735 58.06278561 199.43092918 62.37450663 199.43572205 66.6862393 C199.44681901 76.85776252 199.4472535 87.0292488 199.44120789 97.20077515 C199.43516623 107.69530024 199.44748357 118.18969132 199.46877795 128.68419355 C199.48638795 137.69408872 199.49239628 146.7039412 199.48914021 155.71385294 C199.48732634 161.09522651 199.48997402 166.47650448 199.50385475 171.85786247 C199.51641872 176.91810121 199.5145025 181.97813084 199.50144386 187.03836632 C199.49907546 188.8951296 199.50182219 190.75190753 199.51006699 192.60865402 C199.52051382 195.14419717 199.51245059 197.67903603 199.49975586 200.21455383 C199.50713014 200.94851016 199.51450443 201.68246648 199.52210218 202.4386639 C199.46391193 207.96689854 198.19145272 212.07267454 194.37162781 216.13070679 C193.4763739 216.84807007 193.4763739 216.84807007 192.56303406 217.57992554 C191.96362 218.07105835 191.36420593 218.56219116 190.74662781 219.06820679 C187.1361704 221.73907528 183.78446863 221.41847551 179.4599762 221.42132568 C178.25918999 221.42789906 178.25918999 221.42789906 177.03414547 221.43460524 C174.33657867 221.44801977 171.63904456 221.45417809 168.94145203 221.46029663 C167.01327363 221.46819563 165.08509672 221.47646445 163.15692139 221.4850769 C156.81053586 221.51132463 150.46414365 221.5266092 144.11772156 221.54086304 C141.93429179 221.54622195 139.75086208 221.55159946 137.5674324 221.55699539 C128.48460652 221.57862986 119.40178244 221.59736629 110.3189373 221.60861778 C97.29715022 221.62485375 84.27566171 221.65801669 71.25398719 221.71501863 C62.10145591 221.75371834 52.94900447 221.77325064 43.79639351 221.77853835 C38.32874035 221.78219229 32.86140543 221.79421808 27.39384079 221.82664108 C22.24737769 221.8567213 17.10142537 221.86303355 11.95489311 221.85125732 C10.06831521 221.85103657 8.18171362 221.85934281 6.29521751 221.87691116 C3.71386431 221.8996372 1.13435788 221.89129276 -1.44700623 221.87542725 C-2.18885607 221.88930933 -2.93070591 221.90319142 -3.69503605 221.91749418 C-9.41682792 221.83119316 -13.61607072 220.14116883 -17.87446594 216.26742554 C-21.69622085 211.19865134 -22.45805522 206.1445825 -22.38240051 199.94953918 C-22.38864048 199.15135004 -22.39488044 198.35316089 -22.40130949 197.53078419 C-22.4171658 194.87685393 -22.40466465 192.22385157 -22.39204407 189.56991577 C-22.39746843 187.65893013 -22.40459285 185.74794867 -22.4132843 183.8369751 C-22.43148195 178.66141926 -22.42446509 173.48618323 -22.41176796 168.31062198 C-22.40162336 162.88866756 -22.41103756 157.46674007 -22.41731262 152.04478455 C-22.42458414 142.94162085 -22.41501364 133.83858708 -22.39595032 124.73544312 C-22.37417605 114.21639616 -22.38123905 103.69765927 -22.40325594 93.1786198 C-22.42141622 84.13975576 -22.42396537 75.10098497 -22.41350126 66.06210858 C-22.40727065 60.66676029 -22.40641902 55.27155768 -22.41964722 49.8762188 C-22.43121439 44.80436965 -22.42316395 39.73291982 -22.40007019 34.66111374 C-22.39478805 32.80155029 -22.39628841 30.94195315 -22.40512085 29.08240318 C-22.41607948 26.54059352 -22.40230977 24.00005715 -22.38240051 21.45832825 C-22.39578484 20.35899614 -22.39578484 20.35899614 -22.40943956 19.23745531 C-22.32612694 13.74025487 -20.88086685 10.70855567 -17.87446594 6.26742554 C-12.38566749 1.06010392 -7.39895766 -0.03135187 0 0 Z M-0.87446594 21.26742554 C-0.87446594 80.33742554 -0.87446594 139.40742554 -0.87446594 200.26742554 C58.19553406 200.26742554 117.26553406 200.26742554 178.12553406 200.26742554 C178.12553406 141.19742554 178.12553406 82.12742554 178.12553406 21.26742554 C119.05553406 21.26742554 59.98553406 21.26742554 -0.87446594 21.26742554 Z " fill="#000000" transform="translate(33.87446594238281,290.7325744628906)"/>
<path d="M0 0 C1.53805298 -0.01925285 1.53805298 -0.01925285 3.10717773 -0.03889465 C4.77115601 -0.04997505 4.77115601 -0.04997505 6.46875 -0.0612793 C7.61480713 -0.06935104 8.76086426 -0.07742279 9.94165039 -0.08573914 C12.37270597 -0.09958198 14.803781 -0.11030323 17.23486328 -0.11816406 C20.92649092 -0.13530187 24.61720545 -0.17917895 28.30859375 -0.22338867 C30.6744726 -0.23352248 33.04035905 -0.24203643 35.40625 -0.2487793 C37.0459375 -0.27504143 37.0459375 -0.27504143 38.71875 -0.30183411 C47.22125058 -0.27815719 55.47494511 1.2303582 62.40625 6.48950195 C67.93828999 12.29139755 70.99860713 19.00282453 71.28125 27.05200195 C71.01853766 37.35959804 66.01269678 43.19594755 58.96875 50.17700195 C59.47664063 50.45672852 59.98453125 50.73645508 60.5078125 51.0246582 C67.53926931 55.11975758 72.94627975 60.03007346 75.49609375 67.9543457 C77.45641838 77.1727318 75.76909755 86.05068918 70.80078125 94.05981445 C64.64435334 101.98945299 55.70069217 104.63671319 46.14042664 105.96037292 C41.61453886 106.41183916 37.06813716 106.3830611 32.5234375 106.4152832 C31.43539825 106.42335495 30.34735901 106.4314267 29.22634888 106.43974304 C26.93525764 106.45352276 24.64414641 106.464272 22.35302734 106.47216797 C20.00986723 106.48374195 17.66673455 106.50427791 15.32373047 106.53369141 C11.9317846 106.57623929 8.54061659 106.59251379 5.1484375 106.6027832 C4.10251434 106.62029129 3.05659119 106.63779938 1.97897339 106.65583801 C-5.27732687 106.63413314 -5.27732687 106.63413314 -9.16748047 104.27539062 C-12.71799518 100.2779222 -12.19234831 96.51010667 -12.20825195 91.40039062 C-12.21482315 90.4912944 -12.22139435 89.58219818 -12.22816467 88.64555359 C-12.24792051 85.62869185 -12.25956508 82.61187992 -12.26953125 79.5949707 C-12.27360678 78.56598475 -12.2776823 77.53699879 -12.28188133 76.47683144 C-12.30275137 71.0311058 -12.31704931 65.58540544 -12.32641602 60.13964844 C-12.33748513 54.51034374 -12.37188833 48.88143383 -12.41158772 43.25226879 C-12.43771285 38.92771156 -12.44610419 34.60324898 -12.44969749 30.27861977 C-12.45457371 28.20336553 -12.46621701 26.1281158 -12.48473549 24.05293846 C-12.50904045 21.14890491 -12.50817769 18.24590064 -12.5012207 15.34179688 C-12.51403076 14.48394592 -12.52684082 13.62609497 -12.54003906 12.74224854 C-12.50497438 8.72811769 -12.32999572 6.66526257 -10.18937683 3.16670227 C-6.93794842 0.16902482 -4.24856792 0.0463833 0 0 Z M9.96875 17.17700195 C9.96875 25.75700195 9.96875 34.33700195 9.96875 43.17700195 C13.908125 43.23887695 17.8475 43.30075195 21.90625 43.36450195 C23.12948975 43.39181396 24.35272949 43.41912598 25.61303711 43.44726562 C33.25637669 43.50495823 40.4409007 43.17567386 46.46875 38.05200195 C48.51984943 34.12072805 49.15375823 30.60111175 48.96875 26.17700195 C47.56970033 22.15473416 46.3515318 21.37187269 42.53125 19.42700195 C37.79488796 17.76512054 34.14718246 17.0536426 29.109375 17.0793457 C28.10422852 17.08184326 27.09908203 17.08434082 26.06347656 17.08691406 C24.16033691 17.10057007 24.16033691 17.10057007 22.21875 17.11450195 C16.155 17.14543945 16.155 17.14543945 9.96875 17.17700195 Z M9.96875 60.17700195 C9.96875 69.74700195 9.96875 79.31700195 9.96875 89.17700195 C14.23825028 89.26937095 18.50421837 89.34882962 22.77392578 89.39672852 C24.22293917 89.41671491 25.67187325 89.44391393 27.12060547 89.47875977 C38.61778011 89.79230721 38.61778011 89.79230721 48.96875 85.17700195 C52.29545173 81.68396513 53.25553756 78.88532212 53.53125 74.17700195 C53.37736078 70.76579088 52.97389992 68.48495764 50.90625 65.73950195 C45.4175741 60.95150808 40.67968581 59.79470815 33.50390625 59.8840332 C32.82573349 59.88827805 32.14756073 59.89252289 31.44883728 59.89689636 C29.30921598 59.91352254 27.17058053 59.95114021 25.03125 59.98950195 C23.56967518 60.00456973 22.10808542 60.01825445 20.64648438 60.03051758 C17.08656578 60.06080617 13.52874488 60.11954836 9.96875 60.17700195 Z " fill="#000000" transform="translate(93.03125,343.822998046875)"/>
<path d="M0 0 C6.75980615 3.70179861 11.78235751 9.73567805 16.77734375 15.48828125 C18.97412829 17.9707636 21.26156214 20.30155263 23.625 22.625 C26.30800064 25.27105743 28.86967181 27.94380345 31.3125 30.8125 C34.37500183 34.38898815 37.65280287 37.69389799 41 41 C44.8983815 44.85063647 48.60976897 48.76038327 52.15625 52.94140625 C54.51476035 55.57474302 57.0388598 58.02726169 59.5625 60.5 C70.89547264 71.73877151 70.89547264 71.73877151 72.0625 78.1875 C71.99575077 82.25920276 71.55953017 83.89199908 69 87 C65.88759507 89.07493662 63.96049625 89.61177502 60.23828125 89.49609375 C52.41869741 87.76295737 46.89109272 79.80215264 42.23828125 73.84375 C40.13978324 71.68164765 40.13978324 71.68164765 37.34790039 72.20092773 C33.48177066 73.12369027 29.87081183 74.45603861 26.1953125 75.94140625 C25.4713327 76.22853989 24.74735291 76.51567352 24.00143433 76.81150818 C21.70703126 77.72295004 19.41601479 78.64257907 17.125 79.5625 C15.56271704 80.18478995 14.00021909 80.80654045 12.4375 81.42773438 C8.62248405 82.94559226 4.81048201 84.47079758 1 86 C0.98018066 86.6297876 0.96036133 87.2595752 0.93994141 87.90844727 C0.84401103 90.7935136 0.7346103 93.6779223 0.625 96.5625 C0.57859375 98.0484668 0.57859375 98.0484668 0.53125 99.56445312 C0.31363579 105.02294287 -0.06829088 109.86717291 -2 115 C-4.82659918 117.57719337 -7.27603648 118.21265692 -11 118.4375 C-13.89391747 118.29553424 -15.19633314 117.90183343 -17.875 116.5625 C-22.55918713 110.91392141 -22.29462934 102.89601597 -22.25878906 95.84350586 C-22.2622937 94.97722061 -22.26579834 94.11093536 -22.26940918 93.21839905 C-22.27813886 90.38379664 -22.27240906 87.54944825 -22.265625 84.71484375 C-22.26697405 82.7290492 -22.26891657 80.74325497 -22.27142334 78.75746155 C-22.27436263 74.60772539 -22.27011504 70.45807567 -22.26074219 66.30834961 C-22.24934095 61.00361988 -22.25591902 55.69909242 -22.26788712 50.39437008 C-22.27513166 46.29788198 -22.272806 42.20144143 -22.26763153 38.10495186 C-22.2663026 36.14942971 -22.26791609 34.19390317 -22.27259064 32.23838615 C-22.27769946 29.50117508 -22.26988506 26.7642868 -22.25878906 24.02709961 C-22.26283752 23.22843475 -22.26688599 22.4297699 -22.27105713 21.60690308 C-22.22333728 15.21623515 -21.82912799 9.21420756 -17.625 4.125 C-12.10874955 -0.34053608 -7.00554803 -1.34148792 0 0 Z M-2 25 C-2.02503196 29.21345649 -2.04301426 33.42687165 -2.05493164 37.64038086 C-2.05990862 39.06877396 -2.06669262 40.49716212 -2.07543945 41.92553711 C-2.12557575 50.33368859 -1.98596687 58.63539945 -1 67 C8.606469 64.38752845 17.76145217 60.67327882 27 57 C23.57056114 52.97401109 20.11549213 48.98057022 16.5625 45.0625 C11.49375844 39.44946405 6.50190227 33.78046136 1.625 28 C0.75875 27.01 -0.1075 26.02 -1 25 C-1.33 25 -1.66 25 -2 25 Z " fill="#000000" transform="translate(234,82)"/>
<path d="M0 0 C0.78834229 0.00563965 1.57668457 0.0112793 2.38891602 0.01708984 C15.95245199 0.29533035 28.58607321 4.15896627 38.75 13.4921875 C44.73107635 20.19214322 50.14831746 28.73870637 50.46484375 37.91796875 C50.16172304 43.1798333 49.35643763 46.57236162 45.375 50.3125 C42.92722161 51.5363892 41.64109459 51.328864 38.9375 51.0625 C37.76380859 50.96195312 37.76380859 50.96195312 36.56640625 50.859375 C33.92081782 50.19915685 33.12750111 49.36829592 31.375 47.3125 C30.57885742 45.52246094 30.57885742 45.52246094 29.98046875 43.546875 C29.75061279 42.82459717 29.52075684 42.10231934 29.28393555 41.3581543 C29.04586182 40.60058838 28.80778809 39.84302246 28.5625 39.0625 C26.12951782 31.84064704 24.07683449 26.03193941 17.20703125 22.05859375 C9.27514706 18.24544339 2.79167216 17.72877738 -5.625 20.3125 C-14.37098504 23.92394804 -19.24707593 31.6873281 -22.875 40.125 C-27.40288937 52.57669577 -30.1505862 65.22347042 -25.01171875 77.86328125 C-21.56868053 83.94436565 -15.52122977 86.95244561 -8.98046875 88.84375 C-1.9856118 90.23576133 5.15696541 90.08327599 11.375 86.3125 C15.94126651 82.44873603 19.68206655 77.99968477 23.375 73.3125 C26.52411479 71.73794261 28.89508816 71.96450882 32.375 72.3125 C35.8125 74.25 35.8125 74.25 38.375 77.3125 C39.71290061 82.6845284 38.44886715 87.6166196 35.75390625 92.33984375 C29.71157744 100.98396853 21.62621058 105.76571051 12 109.6875 C-2.19910297 112.1356212 -18.49577051 109.3712423 -30.625 101.3125 C-41.25384623 93.3170694 -47.63806541 83.49727663 -50.18359375 70.44921875 C-52.64416874 52.96389384 -48.89906236 33.78216918 -38.3125 19.4375 C-28.13377906 7.42839503 -16.04654017 -0.12081938 0 0 Z " fill="#000000" transform="translate(372.625,314.6875)"/>
</svg>
