<?xml version="1.0" standalone="no"?>
<!DOCTYPE svg PUBLIC "-//W3C//DTD SVG 20010904//EN"
 "http://www.w3.org/TR/2001/REC-SVG-20010904/DTD/svg10.dtd">
<svg version="1.0" xmlns="http://www.w3.org/2000/svg"
 width="512.000000pt" height="512.000000pt" viewBox="0 0 512.000000 512.000000"
 preserveAspectRatio="xMidYMid meet">

<g transform="translate(0.000000,512.000000) scale(0.100000,-0.100000)"
fill="#000000" stroke="none">
<path d="M2315 4950 c-108 -22 -203 -76 -290 -165 -287 -293 -1090 -1139
-1114 -1172 -17 -23 -98 -194 -181 -380 -96 -216 -202 -433 -295 -603 -79
-146 -153 -294 -164 -328 -12 -36 -41 -202 -68 -399 l-47 -338 54 -158 c109
-320 186 -443 430 -688 194 -195 271 -250 534 -381 197 -99 332 -148 476 -175
87 -16 188 -17 1155 -18 1188 0 1100 -5 1250 73 89 47 142 102 521 537 195
224 306 360 325 397 61 120 71 218 43 387 -25 150 -234 1215 -249 1276 -19 72
-73 178 -123 241 -22 28 -190 184 -373 347 l-334 296 -184 342 c-218 405 -260
470 -360 569 -98 98 -159 129 -463 236 -312 110 -414 130 -543 104z m190 -321
c71 -19 469 -161 507 -180 50 -26 100 -71 143 -129 l36 -49 -71 -358 c-70
-351 -75 -371 -282 -1058 -115 -385 -214 -725 -220 -756 -20 -112 25 -244 114
-332 49 -49 79 -65 415 -217 199 -90 360 -166 357 -169 -2 -2 -203 -28 -447
-58 l-442 -53 -319 318 c-175 174 -331 335 -347 356 l-29 39 0 354 0 353 195
943 c107 518 197 952 200 964 9 39 105 55 190 32z m-566 -1066 c-95 -461 -175
-841 -178 -845 -5 -5 -399 843 -413 888 -3 10 754 805 761 799 2 -2 -75 -381
-170 -842z m1597 77 l79 -145 247 -220 c136 -121 253 -226 260 -233 16 -17 60
-34 -487 192 -413 170 -450 187 -448 208 1 19 101 512 119 587 6 26 -7 47 230
-389z m-2142 -518 c86 -189 156 -347 156 -351 0 -5 -134 -88 -297 -186 -424
-253 -429 -259 -522 -620 l-56 -220 -79 -3 c-44 -2 -82 1 -86 5 -4 4 7 107 25
228 36 249 18 202 210 555 67 123 180 357 266 549 105 236 158 344 181 368 17
18 35 30 39 26 3 -5 77 -162 163 -351z m2381 -117 c330 -136 603 -252 607
-258 10 -16 210 -1036 206 -1052 -2 -8 -107 -88 -233 -178 -229 -163 -232
-165 -295 -172 l-65 -7 -550 249 c-509 231 -554 253 -601 300 -64 62 -85 129
-65 210 10 40 332 1120 346 1160 3 9 11 10 27 4 13 -5 293 -120 623 -256z
m-2013 -682 c3 -374 3 -378 26 -423 16 -30 152 -173 395 -417 205 -205 367
-373 361 -373 -13 0 -1737 470 -1742 474 -6 7 138 546 156 581 11 23 38 58 61
80 33 32 710 451 733 454 4 1 8 -169 10 -376z m2872 -859 c10 -75 7 -123 -10
-155 -15 -30 -535 -631 -642 -743 -102 -106 -62 -101 -704 -104 l-558 -3 0
255 c0 194 3 255 13 258 6 3 337 56 735 119 l724 114 211 152 c117 83 215 152
218 152 4 1 9 -20 13 -45z m-3039 -262 l800 -218 3 -263 2 -263 -332 5 c-421
6 -464 15 -753 159 -207 104 -291 163 -446 318 -171 170 -250 280 -309 430
l-20 50 128 0 127 0 800 -218z"/>
</g>
</svg>
